<mxfile host="app.diagrams.net" modified="2024-07-10T03:16:50.610Z" agent="Mozilla/5.0 (Windows NT 10.0; Win64; x64) AppleWebKit/537.36 (KHTML, like Gecko) Chrome/126.0.0.0 Safari/537.36" etag="OrdzNQmxKNw15cnON9q2" version="24.6.4" type="device">
  <diagram name="Page-1" id="Of3P6iU7cBwIH-YQqPJt">
    <mxGraphModel dx="2933" dy="2027" grid="1" gridSize="10" guides="1" tooltips="1" connect="1" arrows="1" fold="1" page="1" pageScale="1" pageWidth="850" pageHeight="1100" math="0" shadow="0">
      <root>
        <mxCell id="0" />
        <mxCell id="1" parent="0" />
        <mxCell id="tcN-wxtSRkhTtf9mxSX--1" value="Spotify" style="whiteSpace=wrap;html=1;align=center;fillColor=#5D7F99;strokeColor=#D0CEE2;labelBackgroundColor=none;fontColor=#1A1A1A;" parent="1" vertex="1">
          <mxGeometry x="-790" y="-390" width="100" height="40" as="geometry" />
        </mxCell>
        <mxCell id="tcN-wxtSRkhTtf9mxSX--21" value="Song" style="shape=table;startSize=30;container=1;collapsible=1;childLayout=tableLayout;fixedRows=1;rowLines=0;fontStyle=1;align=center;resizeLast=1;labelBackgroundColor=none;fillColor=#f8cecc;strokeColor=#b85450;" parent="1" vertex="1">
          <mxGeometry x="-210" y="620" width="180" height="275.53999999999996" as="geometry" />
        </mxCell>
        <mxCell id="tcN-wxtSRkhTtf9mxSX--22" value="" style="shape=tableRow;horizontal=0;startSize=0;swimlaneHead=0;swimlaneBody=0;fillColor=none;collapsible=0;dropTarget=0;points=[[0,0.5],[1,0.5]];portConstraint=eastwest;top=0;left=0;right=0;bottom=1;labelBackgroundColor=none;strokeColor=#D0CEE2;fontColor=#1A1A1A;" parent="tcN-wxtSRkhTtf9mxSX--21" vertex="1">
          <mxGeometry y="30" width="180" height="26" as="geometry" />
        </mxCell>
        <mxCell id="tcN-wxtSRkhTtf9mxSX--23" value="PK" style="shape=partialRectangle;connectable=0;fillColor=none;top=0;left=0;bottom=0;right=0;fontStyle=1;overflow=hidden;labelBackgroundColor=none;strokeColor=#D0CEE2;fontColor=#1A1A1A;" parent="tcN-wxtSRkhTtf9mxSX--22" vertex="1">
          <mxGeometry width="30" height="26" as="geometry">
            <mxRectangle width="30" height="26" as="alternateBounds" />
          </mxGeometry>
        </mxCell>
        <mxCell id="tcN-wxtSRkhTtf9mxSX--24" value="Song_ID" style="shape=partialRectangle;connectable=0;fillColor=none;top=0;left=0;bottom=0;right=0;align=left;spacingLeft=6;fontStyle=5;overflow=hidden;labelBackgroundColor=none;strokeColor=#D0CEE2;fontColor=#1A1A1A;" parent="tcN-wxtSRkhTtf9mxSX--22" vertex="1">
          <mxGeometry x="30" width="150" height="26" as="geometry">
            <mxRectangle width="150" height="26" as="alternateBounds" />
          </mxGeometry>
        </mxCell>
        <mxCell id="tcN-wxtSRkhTtf9mxSX--25" value="" style="shape=tableRow;horizontal=0;startSize=0;swimlaneHead=0;swimlaneBody=0;fillColor=none;collapsible=0;dropTarget=0;points=[[0,0.5],[1,0.5]];portConstraint=eastwest;top=0;left=0;right=0;bottom=0;labelBackgroundColor=none;strokeColor=#D0CEE2;fontColor=#1A1A1A;" parent="tcN-wxtSRkhTtf9mxSX--21" vertex="1">
          <mxGeometry y="56" width="180" height="30" as="geometry" />
        </mxCell>
        <mxCell id="tcN-wxtSRkhTtf9mxSX--26" value="" style="shape=partialRectangle;connectable=0;fillColor=none;top=0;left=0;bottom=0;right=0;editable=1;overflow=hidden;labelBackgroundColor=none;strokeColor=#D0CEE2;fontColor=#1A1A1A;" parent="tcN-wxtSRkhTtf9mxSX--25" vertex="1">
          <mxGeometry width="30" height="30" as="geometry">
            <mxRectangle width="30" height="30" as="alternateBounds" />
          </mxGeometry>
        </mxCell>
        <mxCell id="tcN-wxtSRkhTtf9mxSX--27" value="Lyrics" style="shape=partialRectangle;connectable=0;fillColor=none;top=0;left=0;bottom=0;right=0;align=left;spacingLeft=6;overflow=hidden;labelBackgroundColor=none;strokeColor=#D0CEE2;fontColor=#1A1A1A;" parent="tcN-wxtSRkhTtf9mxSX--25" vertex="1">
          <mxGeometry x="30" width="150" height="30" as="geometry">
            <mxRectangle width="150" height="30" as="alternateBounds" />
          </mxGeometry>
        </mxCell>
        <mxCell id="tcN-wxtSRkhTtf9mxSX--28" value="" style="shape=tableRow;horizontal=0;startSize=0;swimlaneHead=0;swimlaneBody=0;fillColor=none;collapsible=0;dropTarget=0;points=[[0,0.5],[1,0.5]];portConstraint=eastwest;top=0;left=0;right=0;bottom=0;labelBackgroundColor=none;strokeColor=#D0CEE2;fontColor=#1A1A1A;" parent="tcN-wxtSRkhTtf9mxSX--21" vertex="1">
          <mxGeometry y="86" width="180" height="30" as="geometry" />
        </mxCell>
        <mxCell id="tcN-wxtSRkhTtf9mxSX--29" value="" style="shape=partialRectangle;connectable=0;fillColor=none;top=0;left=0;bottom=0;right=0;editable=1;overflow=hidden;labelBackgroundColor=none;strokeColor=#D0CEE2;fontColor=#1A1A1A;" parent="tcN-wxtSRkhTtf9mxSX--28" vertex="1">
          <mxGeometry width="30" height="30" as="geometry">
            <mxRectangle width="30" height="30" as="alternateBounds" />
          </mxGeometry>
        </mxCell>
        <mxCell id="tcN-wxtSRkhTtf9mxSX--30" value="Title" style="shape=partialRectangle;connectable=0;fillColor=none;top=0;left=0;bottom=0;right=0;align=left;spacingLeft=6;overflow=hidden;labelBackgroundColor=none;strokeColor=#D0CEE2;fontColor=#1A1A1A;fontStyle=0" parent="tcN-wxtSRkhTtf9mxSX--28" vertex="1">
          <mxGeometry x="30" width="150" height="30" as="geometry">
            <mxRectangle width="150" height="30" as="alternateBounds" />
          </mxGeometry>
        </mxCell>
        <mxCell id="tcN-wxtSRkhTtf9mxSX--31" value="" style="shape=tableRow;horizontal=0;startSize=0;swimlaneHead=0;swimlaneBody=0;fillColor=none;collapsible=0;dropTarget=0;points=[[0,0.5],[1,0.5]];portConstraint=eastwest;top=0;left=0;right=0;bottom=0;labelBackgroundColor=none;strokeColor=#D0CEE2;fontColor=#1A1A1A;" parent="tcN-wxtSRkhTtf9mxSX--21" vertex="1">
          <mxGeometry y="116" width="180" height="30" as="geometry" />
        </mxCell>
        <mxCell id="tcN-wxtSRkhTtf9mxSX--32" value="" style="shape=partialRectangle;connectable=0;fillColor=none;top=0;left=0;bottom=0;right=0;editable=1;overflow=hidden;labelBackgroundColor=none;strokeColor=#D0CEE2;fontColor=#1A1A1A;" parent="tcN-wxtSRkhTtf9mxSX--31" vertex="1">
          <mxGeometry width="30" height="30" as="geometry">
            <mxRectangle width="30" height="30" as="alternateBounds" />
          </mxGeometry>
        </mxCell>
        <mxCell id="tcN-wxtSRkhTtf9mxSX--33" value="ReleaseDate" style="shape=partialRectangle;connectable=0;fillColor=none;top=0;left=0;bottom=0;right=0;align=left;spacingLeft=6;overflow=hidden;labelBackgroundColor=none;strokeColor=#D0CEE2;fontColor=#1A1A1A;" parent="tcN-wxtSRkhTtf9mxSX--31" vertex="1">
          <mxGeometry x="30" width="150" height="30" as="geometry">
            <mxRectangle width="150" height="30" as="alternateBounds" />
          </mxGeometry>
        </mxCell>
        <mxCell id="tcN-wxtSRkhTtf9mxSX--34" value="" style="shape=tableRow;horizontal=0;startSize=0;swimlaneHead=0;swimlaneBody=0;fillColor=none;collapsible=0;dropTarget=0;points=[[0,0.5],[1,0.5]];portConstraint=eastwest;top=0;left=0;right=0;bottom=0;strokeColor=#D0CEE2;labelBackgroundColor=none;fontColor=#1A1A1A;" parent="tcN-wxtSRkhTtf9mxSX--21" vertex="1">
          <mxGeometry y="146" width="180" height="30" as="geometry" />
        </mxCell>
        <mxCell id="tcN-wxtSRkhTtf9mxSX--35" value="" style="shape=partialRectangle;connectable=0;fillColor=none;top=0;left=0;bottom=0;right=0;editable=1;overflow=hidden;strokeColor=#D0CEE2;labelBackgroundColor=none;fontColor=#1A1A1A;" parent="tcN-wxtSRkhTtf9mxSX--34" vertex="1">
          <mxGeometry width="30" height="30" as="geometry">
            <mxRectangle width="30" height="30" as="alternateBounds" />
          </mxGeometry>
        </mxCell>
        <mxCell id="tcN-wxtSRkhTtf9mxSX--36" value="Age category" style="shape=partialRectangle;connectable=0;fillColor=none;top=0;left=0;bottom=0;right=0;align=left;spacingLeft=6;overflow=hidden;strokeColor=#D0CEE2;labelBackgroundColor=none;fontColor=#1A1A1A;" parent="tcN-wxtSRkhTtf9mxSX--34" vertex="1">
          <mxGeometry x="30" width="150" height="30" as="geometry">
            <mxRectangle width="150" height="30" as="alternateBounds" />
          </mxGeometry>
        </mxCell>
        <mxCell id="tcN-wxtSRkhTtf9mxSX--282" value="" style="shape=tableRow;horizontal=0;startSize=0;swimlaneHead=0;swimlaneBody=0;fillColor=none;collapsible=0;dropTarget=0;points=[[0,0.5],[1,0.5]];portConstraint=eastwest;top=0;left=0;right=0;bottom=0;labelBackgroundColor=none;strokeColor=#D0CEE2;fontColor=#1A1A1A;" parent="tcN-wxtSRkhTtf9mxSX--21" vertex="1">
          <mxGeometry y="176" width="180" height="30" as="geometry" />
        </mxCell>
        <mxCell id="tcN-wxtSRkhTtf9mxSX--283" value="" style="shape=partialRectangle;connectable=0;fillColor=none;top=0;left=0;bottom=0;right=0;editable=1;overflow=hidden;labelBackgroundColor=none;strokeColor=#D0CEE2;fontColor=#1A1A1A;" parent="tcN-wxtSRkhTtf9mxSX--282" vertex="1">
          <mxGeometry width="30" height="30" as="geometry">
            <mxRectangle width="30" height="30" as="alternateBounds" />
          </mxGeometry>
        </mxCell>
        <mxCell id="tcN-wxtSRkhTtf9mxSX--284" value="Country" style="shape=partialRectangle;connectable=0;fillColor=none;top=0;left=0;bottom=0;right=0;align=left;spacingLeft=6;overflow=hidden;labelBackgroundColor=none;strokeColor=#D0CEE2;fontColor=#1A1A1A;" parent="tcN-wxtSRkhTtf9mxSX--282" vertex="1">
          <mxGeometry x="30" width="150" height="30" as="geometry">
            <mxRectangle width="150" height="30" as="alternateBounds" />
          </mxGeometry>
        </mxCell>
        <mxCell id="tcN-wxtSRkhTtf9mxSX--37" value="" style="shape=tableRow;horizontal=0;startSize=0;swimlaneHead=0;swimlaneBody=0;fillColor=none;collapsible=0;dropTarget=0;points=[[0,0.5],[1,0.5]];portConstraint=eastwest;top=0;left=0;right=0;bottom=0;strokeColor=#D0CEE2;labelBackgroundColor=none;fontColor=#1A1A1A;" parent="tcN-wxtSRkhTtf9mxSX--21" vertex="1">
          <mxGeometry y="206" width="180" height="30" as="geometry" />
        </mxCell>
        <mxCell id="tcN-wxtSRkhTtf9mxSX--38" value="" style="shape=partialRectangle;connectable=0;fillColor=none;top=0;left=0;bottom=0;right=0;editable=1;overflow=hidden;strokeColor=#D0CEE2;labelBackgroundColor=none;fontColor=#1A1A1A;" parent="tcN-wxtSRkhTtf9mxSX--37" vertex="1">
          <mxGeometry width="30" height="30" as="geometry">
            <mxRectangle width="30" height="30" as="alternateBounds" />
          </mxGeometry>
        </mxCell>
        <mxCell id="tcN-wxtSRkhTtf9mxSX--39" value="Genre" style="shape=partialRectangle;connectable=0;fillColor=none;top=0;left=0;bottom=0;right=0;align=left;spacingLeft=6;overflow=hidden;strokeColor=#D0CEE2;labelBackgroundColor=none;fontColor=#1A1A1A;" parent="tcN-wxtSRkhTtf9mxSX--37" vertex="1">
          <mxGeometry x="30" width="150" height="30" as="geometry">
            <mxRectangle width="150" height="30" as="alternateBounds" />
          </mxGeometry>
        </mxCell>
        <mxCell id="tcN-wxtSRkhTtf9mxSX--40" value="" style="shape=tableRow;horizontal=0;startSize=0;swimlaneHead=0;swimlaneBody=0;fillColor=none;collapsible=0;dropTarget=0;points=[[0,0.5],[1,0.5]];portConstraint=eastwest;top=0;left=0;right=0;bottom=0;labelBackgroundColor=none;strokeColor=#D0CEE2;fontColor=#1A1A1A;" parent="tcN-wxtSRkhTtf9mxSX--21" vertex="1">
          <mxGeometry y="236" width="180" height="30" as="geometry" />
        </mxCell>
        <mxCell id="tcN-wxtSRkhTtf9mxSX--41" value="" style="shape=partialRectangle;connectable=0;fillColor=none;top=0;left=0;bottom=0;right=0;editable=1;overflow=hidden;labelBackgroundColor=none;strokeColor=#D0CEE2;fontColor=#1A1A1A;" parent="tcN-wxtSRkhTtf9mxSX--40" vertex="1">
          <mxGeometry width="30" height="30" as="geometry">
            <mxRectangle width="30" height="30" as="alternateBounds" />
          </mxGeometry>
        </mxCell>
        <mxCell id="tcN-wxtSRkhTtf9mxSX--42" value="can be added" style="shape=partialRectangle;connectable=0;fillColor=none;top=0;left=0;bottom=0;right=0;align=left;spacingLeft=6;overflow=hidden;labelBackgroundColor=none;strokeColor=#D0CEE2;fontColor=#1A1A1A;" parent="tcN-wxtSRkhTtf9mxSX--40" vertex="1">
          <mxGeometry x="30" width="150" height="30" as="geometry">
            <mxRectangle width="150" height="30" as="alternateBounds" />
          </mxGeometry>
        </mxCell>
        <mxCell id="tcN-wxtSRkhTtf9mxSX--44" value="Concert" style="shape=table;startSize=30;container=1;collapsible=1;childLayout=tableLayout;fixedRows=1;rowLines=0;fontStyle=1;align=center;resizeLast=1;labelBackgroundColor=none;fillColor=#f8cecc;strokeColor=#b85450;" parent="1" vertex="1">
          <mxGeometry x="210" y="9" width="180" height="160" as="geometry" />
        </mxCell>
        <mxCell id="tcN-wxtSRkhTtf9mxSX--45" value="" style="shape=tableRow;horizontal=0;startSize=0;swimlaneHead=0;swimlaneBody=0;fillColor=none;collapsible=0;dropTarget=0;points=[[0,0.5],[1,0.5]];portConstraint=eastwest;top=0;left=0;right=0;bottom=1;labelBackgroundColor=none;strokeColor=#D0CEE2;fontColor=#1A1A1A;" parent="tcN-wxtSRkhTtf9mxSX--44" vertex="1">
          <mxGeometry y="30" width="180" height="30" as="geometry" />
        </mxCell>
        <mxCell id="tcN-wxtSRkhTtf9mxSX--46" value="PK" style="shape=partialRectangle;connectable=0;fillColor=none;top=0;left=0;bottom=0;right=0;fontStyle=1;overflow=hidden;labelBackgroundColor=none;strokeColor=#D0CEE2;fontColor=#1A1A1A;" parent="tcN-wxtSRkhTtf9mxSX--45" vertex="1">
          <mxGeometry width="30" height="30" as="geometry">
            <mxRectangle width="30" height="30" as="alternateBounds" />
          </mxGeometry>
        </mxCell>
        <mxCell id="tcN-wxtSRkhTtf9mxSX--47" value="" style="shape=partialRectangle;connectable=0;fillColor=none;top=0;left=0;bottom=0;right=0;align=left;spacingLeft=6;fontStyle=5;overflow=hidden;labelBackgroundColor=none;strokeColor=#D0CEE2;fontColor=#1A1A1A;" parent="tcN-wxtSRkhTtf9mxSX--45" vertex="1">
          <mxGeometry x="30" width="150" height="30" as="geometry">
            <mxRectangle width="150" height="30" as="alternateBounds" />
          </mxGeometry>
        </mxCell>
        <mxCell id="tcN-wxtSRkhTtf9mxSX--48" value="" style="shape=tableRow;horizontal=0;startSize=0;swimlaneHead=0;swimlaneBody=0;fillColor=none;collapsible=0;dropTarget=0;points=[[0,0.5],[1,0.5]];portConstraint=eastwest;top=0;left=0;right=0;bottom=0;labelBackgroundColor=none;strokeColor=#D0CEE2;fontColor=#1A1A1A;" parent="tcN-wxtSRkhTtf9mxSX--44" vertex="1">
          <mxGeometry y="60" width="180" height="30" as="geometry" />
        </mxCell>
        <mxCell id="tcN-wxtSRkhTtf9mxSX--49" value="" style="shape=partialRectangle;connectable=0;fillColor=none;top=0;left=0;bottom=0;right=0;editable=1;overflow=hidden;labelBackgroundColor=none;strokeColor=#D0CEE2;fontColor=#1A1A1A;" parent="tcN-wxtSRkhTtf9mxSX--48" vertex="1">
          <mxGeometry width="30" height="30" as="geometry">
            <mxRectangle width="30" height="30" as="alternateBounds" />
          </mxGeometry>
        </mxCell>
        <mxCell id="tcN-wxtSRkhTtf9mxSX--50" value="Date" style="shape=partialRectangle;connectable=0;fillColor=none;top=0;left=0;bottom=0;right=0;align=left;spacingLeft=6;overflow=hidden;labelBackgroundColor=none;strokeColor=#D0CEE2;fontColor=#1A1A1A;fontStyle=4" parent="tcN-wxtSRkhTtf9mxSX--48" vertex="1">
          <mxGeometry x="30" width="150" height="30" as="geometry">
            <mxRectangle width="150" height="30" as="alternateBounds" />
          </mxGeometry>
        </mxCell>
        <mxCell id="tcN-wxtSRkhTtf9mxSX--51" value="" style="shape=tableRow;horizontal=0;startSize=0;swimlaneHead=0;swimlaneBody=0;fillColor=none;collapsible=0;dropTarget=0;points=[[0,0.5],[1,0.5]];portConstraint=eastwest;top=0;left=0;right=0;bottom=0;labelBackgroundColor=none;strokeColor=#D0CEE2;fontColor=#1A1A1A;" parent="tcN-wxtSRkhTtf9mxSX--44" vertex="1">
          <mxGeometry y="90" width="180" height="30" as="geometry" />
        </mxCell>
        <mxCell id="tcN-wxtSRkhTtf9mxSX--52" value="" style="shape=partialRectangle;connectable=0;fillColor=none;top=0;left=0;bottom=0;right=0;editable=1;overflow=hidden;labelBackgroundColor=none;strokeColor=#D0CEE2;fontColor=#1A1A1A;" parent="tcN-wxtSRkhTtf9mxSX--51" vertex="1">
          <mxGeometry width="30" height="30" as="geometry">
            <mxRectangle width="30" height="30" as="alternateBounds" />
          </mxGeometry>
        </mxCell>
        <mxCell id="tcN-wxtSRkhTtf9mxSX--53" value="Location" style="shape=partialRectangle;connectable=0;fillColor=none;top=0;left=0;bottom=0;right=0;align=left;spacingLeft=6;overflow=hidden;labelBackgroundColor=none;strokeColor=#D0CEE2;fontColor=#1A1A1A;" parent="tcN-wxtSRkhTtf9mxSX--51" vertex="1">
          <mxGeometry x="30" width="150" height="30" as="geometry">
            <mxRectangle width="150" height="30" as="alternateBounds" />
          </mxGeometry>
        </mxCell>
        <mxCell id="tcN-wxtSRkhTtf9mxSX--54" value="" style="shape=tableRow;horizontal=0;startSize=0;swimlaneHead=0;swimlaneBody=0;fillColor=none;collapsible=0;dropTarget=0;points=[[0,0.5],[1,0.5]];portConstraint=eastwest;top=0;left=0;right=0;bottom=0;labelBackgroundColor=none;strokeColor=#D0CEE2;fontColor=#1A1A1A;" parent="tcN-wxtSRkhTtf9mxSX--44" vertex="1">
          <mxGeometry y="120" width="180" height="30" as="geometry" />
        </mxCell>
        <mxCell id="tcN-wxtSRkhTtf9mxSX--55" value="" style="shape=partialRectangle;connectable=0;fillColor=none;top=0;left=0;bottom=0;right=0;editable=1;overflow=hidden;labelBackgroundColor=none;strokeColor=#D0CEE2;fontColor=#1A1A1A;" parent="tcN-wxtSRkhTtf9mxSX--54" vertex="1">
          <mxGeometry width="30" height="30" as="geometry">
            <mxRectangle width="30" height="30" as="alternateBounds" />
          </mxGeometry>
        </mxCell>
        <mxCell id="tcN-wxtSRkhTtf9mxSX--56" value="" style="shape=partialRectangle;connectable=0;fillColor=none;top=0;left=0;bottom=0;right=0;align=left;spacingLeft=6;overflow=hidden;labelBackgroundColor=none;strokeColor=#D0CEE2;fontColor=#1A1A1A;" parent="tcN-wxtSRkhTtf9mxSX--54" vertex="1">
          <mxGeometry x="30" width="150" height="30" as="geometry">
            <mxRectangle width="150" height="30" as="alternateBounds" />
          </mxGeometry>
        </mxCell>
        <mxCell id="tcN-wxtSRkhTtf9mxSX--57" value="Album" style="shape=table;startSize=30;container=1;collapsible=1;childLayout=tableLayout;fixedRows=1;rowLines=0;fontStyle=1;align=center;resizeLast=1;labelBackgroundColor=none;fillColor=#f8cecc;strokeColor=#b85450;" parent="1" vertex="1">
          <mxGeometry x="-620" y="640" width="180" height="250" as="geometry" />
        </mxCell>
        <mxCell id="tcN-wxtSRkhTtf9mxSX--58" value="" style="shape=tableRow;horizontal=0;startSize=0;swimlaneHead=0;swimlaneBody=0;fillColor=none;collapsible=0;dropTarget=0;points=[[0,0.5],[1,0.5]];portConstraint=eastwest;top=0;left=0;right=0;bottom=1;labelBackgroundColor=none;strokeColor=#D0CEE2;fontColor=#1A1A1A;" parent="tcN-wxtSRkhTtf9mxSX--57" vertex="1">
          <mxGeometry y="30" width="180" height="30" as="geometry" />
        </mxCell>
        <mxCell id="tcN-wxtSRkhTtf9mxSX--59" value="PK" style="shape=partialRectangle;connectable=0;fillColor=none;top=0;left=0;bottom=0;right=0;fontStyle=1;overflow=hidden;labelBackgroundColor=none;strokeColor=#D0CEE2;fontColor=#1A1A1A;" parent="tcN-wxtSRkhTtf9mxSX--58" vertex="1">
          <mxGeometry width="30" height="30" as="geometry">
            <mxRectangle width="30" height="30" as="alternateBounds" />
          </mxGeometry>
        </mxCell>
        <mxCell id="tcN-wxtSRkhTtf9mxSX--60" value="Album_ID" style="shape=partialRectangle;connectable=0;fillColor=none;top=0;left=0;bottom=0;right=0;align=left;spacingLeft=6;fontStyle=5;overflow=hidden;labelBackgroundColor=none;strokeColor=#D0CEE2;fontColor=#1A1A1A;" parent="tcN-wxtSRkhTtf9mxSX--58" vertex="1">
          <mxGeometry x="30" width="150" height="30" as="geometry">
            <mxRectangle width="150" height="30" as="alternateBounds" />
          </mxGeometry>
        </mxCell>
        <mxCell id="tcN-wxtSRkhTtf9mxSX--61" value="" style="shape=tableRow;horizontal=0;startSize=0;swimlaneHead=0;swimlaneBody=0;fillColor=none;collapsible=0;dropTarget=0;points=[[0,0.5],[1,0.5]];portConstraint=eastwest;top=0;left=0;right=0;bottom=0;labelBackgroundColor=none;strokeColor=#D0CEE2;fontColor=#1A1A1A;" parent="tcN-wxtSRkhTtf9mxSX--57" vertex="1">
          <mxGeometry y="60" width="180" height="30" as="geometry" />
        </mxCell>
        <mxCell id="tcN-wxtSRkhTtf9mxSX--62" value="" style="shape=partialRectangle;connectable=0;fillColor=none;top=0;left=0;bottom=0;right=0;editable=1;overflow=hidden;labelBackgroundColor=none;strokeColor=#D0CEE2;fontColor=#1A1A1A;" parent="tcN-wxtSRkhTtf9mxSX--61" vertex="1">
          <mxGeometry width="30" height="30" as="geometry">
            <mxRectangle width="30" height="30" as="alternateBounds" />
          </mxGeometry>
        </mxCell>
        <mxCell id="tcN-wxtSRkhTtf9mxSX--63" value="TItle" style="shape=partialRectangle;connectable=0;fillColor=none;top=0;left=0;bottom=0;right=0;align=left;spacingLeft=6;overflow=hidden;labelBackgroundColor=none;strokeColor=#D0CEE2;fontColor=#1A1A1A;fontStyle=0" parent="tcN-wxtSRkhTtf9mxSX--61" vertex="1">
          <mxGeometry x="30" width="150" height="30" as="geometry">
            <mxRectangle width="150" height="30" as="alternateBounds" />
          </mxGeometry>
        </mxCell>
        <mxCell id="tcN-wxtSRkhTtf9mxSX--64" value="" style="shape=tableRow;horizontal=0;startSize=0;swimlaneHead=0;swimlaneBody=0;fillColor=none;collapsible=0;dropTarget=0;points=[[0,0.5],[1,0.5]];portConstraint=eastwest;top=0;left=0;right=0;bottom=0;labelBackgroundColor=none;strokeColor=#D0CEE2;fontColor=#1A1A1A;" parent="tcN-wxtSRkhTtf9mxSX--57" vertex="1">
          <mxGeometry y="90" width="180" height="30" as="geometry" />
        </mxCell>
        <mxCell id="tcN-wxtSRkhTtf9mxSX--65" value="" style="shape=partialRectangle;connectable=0;fillColor=none;top=0;left=0;bottom=0;right=0;editable=1;overflow=hidden;labelBackgroundColor=none;strokeColor=#D0CEE2;fontColor=#1A1A1A;" parent="tcN-wxtSRkhTtf9mxSX--64" vertex="1">
          <mxGeometry width="30" height="30" as="geometry">
            <mxRectangle width="30" height="30" as="alternateBounds" />
          </mxGeometry>
        </mxCell>
        <mxCell id="tcN-wxtSRkhTtf9mxSX--66" value="ReleaseDate" style="shape=partialRectangle;connectable=0;fillColor=none;top=0;left=0;bottom=0;right=0;align=left;spacingLeft=6;overflow=hidden;labelBackgroundColor=none;strokeColor=#D0CEE2;fontColor=#1A1A1A;" parent="tcN-wxtSRkhTtf9mxSX--64" vertex="1">
          <mxGeometry x="30" width="150" height="30" as="geometry">
            <mxRectangle width="150" height="30" as="alternateBounds" />
          </mxGeometry>
        </mxCell>
        <mxCell id="tcN-wxtSRkhTtf9mxSX--67" value="" style="shape=tableRow;horizontal=0;startSize=0;swimlaneHead=0;swimlaneBody=0;fillColor=none;collapsible=0;dropTarget=0;points=[[0,0.5],[1,0.5]];portConstraint=eastwest;top=0;left=0;right=0;bottom=0;labelBackgroundColor=none;strokeColor=#D0CEE2;fontColor=#1A1A1A;" parent="tcN-wxtSRkhTtf9mxSX--57" vertex="1">
          <mxGeometry y="120" width="180" height="30" as="geometry" />
        </mxCell>
        <mxCell id="tcN-wxtSRkhTtf9mxSX--68" value="" style="shape=partialRectangle;connectable=0;fillColor=none;top=0;left=0;bottom=0;right=0;editable=1;overflow=hidden;labelBackgroundColor=none;strokeColor=#D0CEE2;fontColor=#1A1A1A;" parent="tcN-wxtSRkhTtf9mxSX--67" vertex="1">
          <mxGeometry width="30" height="30" as="geometry">
            <mxRectangle width="30" height="30" as="alternateBounds" />
          </mxGeometry>
        </mxCell>
        <mxCell id="tcN-wxtSRkhTtf9mxSX--69" value="Country" style="shape=partialRectangle;connectable=0;fillColor=none;top=0;left=0;bottom=0;right=0;align=left;spacingLeft=6;overflow=hidden;labelBackgroundColor=none;strokeColor=#D0CEE2;fontColor=#1A1A1A;" parent="tcN-wxtSRkhTtf9mxSX--67" vertex="1">
          <mxGeometry x="30" width="150" height="30" as="geometry">
            <mxRectangle width="150" height="30" as="alternateBounds" />
          </mxGeometry>
        </mxCell>
        <mxCell id="tcN-wxtSRkhTtf9mxSX--334" value="" style="shape=tableRow;horizontal=0;startSize=0;swimlaneHead=0;swimlaneBody=0;fillColor=none;collapsible=0;dropTarget=0;points=[[0,0.5],[1,0.5]];portConstraint=eastwest;top=0;left=0;right=0;bottom=0;strokeColor=#D0CEE2;fontColor=#1A1A1A;labelBackgroundColor=none;" parent="tcN-wxtSRkhTtf9mxSX--57" vertex="1">
          <mxGeometry y="150" width="180" height="30" as="geometry" />
        </mxCell>
        <mxCell id="tcN-wxtSRkhTtf9mxSX--335" value="" style="shape=partialRectangle;connectable=0;fillColor=none;top=0;left=0;bottom=0;right=0;editable=1;overflow=hidden;strokeColor=#D0CEE2;fontColor=#1A1A1A;labelBackgroundColor=none;" parent="tcN-wxtSRkhTtf9mxSX--334" vertex="1">
          <mxGeometry width="30" height="30" as="geometry">
            <mxRectangle width="30" height="30" as="alternateBounds" />
          </mxGeometry>
        </mxCell>
        <mxCell id="tcN-wxtSRkhTtf9mxSX--336" value="Age category" style="shape=partialRectangle;connectable=0;fillColor=none;top=0;left=0;bottom=0;right=0;align=left;spacingLeft=6;overflow=hidden;strokeColor=#D0CEE2;fontColor=#1A1A1A;labelBackgroundColor=none;" parent="tcN-wxtSRkhTtf9mxSX--334" vertex="1">
          <mxGeometry x="30" width="150" height="30" as="geometry">
            <mxRectangle width="150" height="30" as="alternateBounds" />
          </mxGeometry>
        </mxCell>
        <mxCell id="tcN-wxtSRkhTtf9mxSX--337" value="" style="shape=tableRow;horizontal=0;startSize=0;swimlaneHead=0;swimlaneBody=0;fillColor=none;collapsible=0;dropTarget=0;points=[[0,0.5],[1,0.5]];portConstraint=eastwest;top=0;left=0;right=0;bottom=0;strokeColor=#D0CEE2;fontColor=#1A1A1A;labelBackgroundColor=none;" parent="tcN-wxtSRkhTtf9mxSX--57" vertex="1">
          <mxGeometry y="180" width="180" height="30" as="geometry" />
        </mxCell>
        <mxCell id="tcN-wxtSRkhTtf9mxSX--338" value="" style="shape=partialRectangle;connectable=0;fillColor=none;top=0;left=0;bottom=0;right=0;editable=1;overflow=hidden;strokeColor=#D0CEE2;fontColor=#1A1A1A;labelBackgroundColor=none;" parent="tcN-wxtSRkhTtf9mxSX--337" vertex="1">
          <mxGeometry width="30" height="30" as="geometry">
            <mxRectangle width="30" height="30" as="alternateBounds" />
          </mxGeometry>
        </mxCell>
        <mxCell id="tcN-wxtSRkhTtf9mxSX--339" value="Genre" style="shape=partialRectangle;connectable=0;fillColor=none;top=0;left=0;bottom=0;right=0;align=left;spacingLeft=6;overflow=hidden;strokeColor=#D0CEE2;fontColor=#1A1A1A;labelBackgroundColor=none;" parent="tcN-wxtSRkhTtf9mxSX--337" vertex="1">
          <mxGeometry x="30" width="150" height="30" as="geometry">
            <mxRectangle width="150" height="30" as="alternateBounds" />
          </mxGeometry>
        </mxCell>
        <mxCell id="tcN-wxtSRkhTtf9mxSX--340" value="" style="shape=tableRow;horizontal=0;startSize=0;swimlaneHead=0;swimlaneBody=0;fillColor=none;collapsible=0;dropTarget=0;points=[[0,0.5],[1,0.5]];portConstraint=eastwest;top=0;left=0;right=0;bottom=0;strokeColor=#D0CEE2;fontColor=#1A1A1A;labelBackgroundColor=none;" parent="tcN-wxtSRkhTtf9mxSX--57" vertex="1">
          <mxGeometry y="210" width="180" height="30" as="geometry" />
        </mxCell>
        <mxCell id="tcN-wxtSRkhTtf9mxSX--341" value="" style="shape=partialRectangle;connectable=0;fillColor=none;top=0;left=0;bottom=0;right=0;editable=1;overflow=hidden;strokeColor=#D0CEE2;fontColor=#1A1A1A;labelBackgroundColor=none;" parent="tcN-wxtSRkhTtf9mxSX--340" vertex="1">
          <mxGeometry width="30" height="30" as="geometry">
            <mxRectangle width="30" height="30" as="alternateBounds" />
          </mxGeometry>
        </mxCell>
        <mxCell id="tcN-wxtSRkhTtf9mxSX--342" value="" style="shape=partialRectangle;connectable=0;fillColor=none;top=0;left=0;bottom=0;right=0;align=left;spacingLeft=6;overflow=hidden;strokeColor=#D0CEE2;fontColor=#1A1A1A;labelBackgroundColor=none;" parent="tcN-wxtSRkhTtf9mxSX--340" vertex="1">
          <mxGeometry x="30" width="150" height="30" as="geometry">
            <mxRectangle width="150" height="30" as="alternateBounds" />
          </mxGeometry>
        </mxCell>
        <mxCell id="tcN-wxtSRkhTtf9mxSX--70" value="DigitalWallet" style="shape=table;startSize=30;container=1;collapsible=1;childLayout=tableLayout;fixedRows=1;rowLines=0;fontStyle=1;align=center;resizeLast=1;labelBackgroundColor=none;fillColor=#f8cecc;strokeColor=#b85450;" parent="1" vertex="1">
          <mxGeometry x="-40" y="-365" width="180" height="150" as="geometry" />
        </mxCell>
        <mxCell id="tcN-wxtSRkhTtf9mxSX--71" value="" style="shape=tableRow;horizontal=0;startSize=0;swimlaneHead=0;swimlaneBody=0;fillColor=none;collapsible=0;dropTarget=0;points=[[0,0.5],[1,0.5]];portConstraint=eastwest;top=0;left=0;right=0;bottom=1;labelBackgroundColor=none;strokeColor=#D0CEE2;fontColor=#1A1A1A;" parent="tcN-wxtSRkhTtf9mxSX--70" vertex="1">
          <mxGeometry y="30" width="180" height="30" as="geometry" />
        </mxCell>
        <mxCell id="tcN-wxtSRkhTtf9mxSX--72" value="PK" style="shape=partialRectangle;connectable=0;fillColor=none;top=0;left=0;bottom=0;right=0;fontStyle=1;overflow=hidden;labelBackgroundColor=none;strokeColor=#D0CEE2;fontColor=#1A1A1A;" parent="tcN-wxtSRkhTtf9mxSX--71" vertex="1">
          <mxGeometry width="30" height="30" as="geometry">
            <mxRectangle width="30" height="30" as="alternateBounds" />
          </mxGeometry>
        </mxCell>
        <mxCell id="tcN-wxtSRkhTtf9mxSX--73" value="Wallet  ID" style="shape=partialRectangle;connectable=0;fillColor=none;top=0;left=0;bottom=0;right=0;align=left;spacingLeft=6;fontStyle=5;overflow=hidden;labelBackgroundColor=none;strokeColor=#D0CEE2;fontColor=#1A1A1A;" parent="tcN-wxtSRkhTtf9mxSX--71" vertex="1">
          <mxGeometry x="30" width="150" height="30" as="geometry">
            <mxRectangle width="150" height="30" as="alternateBounds" />
          </mxGeometry>
        </mxCell>
        <mxCell id="tcN-wxtSRkhTtf9mxSX--74" value="" style="shape=tableRow;horizontal=0;startSize=0;swimlaneHead=0;swimlaneBody=0;fillColor=none;collapsible=0;dropTarget=0;points=[[0,0.5],[1,0.5]];portConstraint=eastwest;top=0;left=0;right=0;bottom=0;labelBackgroundColor=none;strokeColor=#D0CEE2;fontColor=#1A1A1A;" parent="tcN-wxtSRkhTtf9mxSX--70" vertex="1">
          <mxGeometry y="60" width="180" height="30" as="geometry" />
        </mxCell>
        <mxCell id="tcN-wxtSRkhTtf9mxSX--75" value="" style="shape=partialRectangle;connectable=0;fillColor=none;top=0;left=0;bottom=0;right=0;editable=1;overflow=hidden;labelBackgroundColor=none;strokeColor=#D0CEE2;fontColor=#1A1A1A;" parent="tcN-wxtSRkhTtf9mxSX--74" vertex="1">
          <mxGeometry width="30" height="30" as="geometry">
            <mxRectangle width="30" height="30" as="alternateBounds" />
          </mxGeometry>
        </mxCell>
        <mxCell id="tcN-wxtSRkhTtf9mxSX--76" value="Amount" style="shape=partialRectangle;connectable=0;fillColor=none;top=0;left=0;bottom=0;right=0;align=left;spacingLeft=6;overflow=hidden;labelBackgroundColor=none;strokeColor=#D0CEE2;fontColor=#1A1A1A;" parent="tcN-wxtSRkhTtf9mxSX--74" vertex="1">
          <mxGeometry x="30" width="150" height="30" as="geometry">
            <mxRectangle width="150" height="30" as="alternateBounds" />
          </mxGeometry>
        </mxCell>
        <mxCell id="tcN-wxtSRkhTtf9mxSX--77" value="" style="shape=tableRow;horizontal=0;startSize=0;swimlaneHead=0;swimlaneBody=0;fillColor=none;collapsible=0;dropTarget=0;points=[[0,0.5],[1,0.5]];portConstraint=eastwest;top=0;left=0;right=0;bottom=0;labelBackgroundColor=none;strokeColor=#D0CEE2;fontColor=#1A1A1A;" parent="tcN-wxtSRkhTtf9mxSX--70" vertex="1">
          <mxGeometry y="90" width="180" height="30" as="geometry" />
        </mxCell>
        <mxCell id="tcN-wxtSRkhTtf9mxSX--78" value="" style="shape=partialRectangle;connectable=0;fillColor=none;top=0;left=0;bottom=0;right=0;editable=1;overflow=hidden;labelBackgroundColor=none;strokeColor=#D0CEE2;fontColor=#1A1A1A;" parent="tcN-wxtSRkhTtf9mxSX--77" vertex="1">
          <mxGeometry width="30" height="30" as="geometry">
            <mxRectangle width="30" height="30" as="alternateBounds" />
          </mxGeometry>
        </mxCell>
        <mxCell id="tcN-wxtSRkhTtf9mxSX--79" value="" style="shape=partialRectangle;connectable=0;fillColor=none;top=0;left=0;bottom=0;right=0;align=left;spacingLeft=6;overflow=hidden;labelBackgroundColor=none;strokeColor=#D0CEE2;fontColor=#1A1A1A;" parent="tcN-wxtSRkhTtf9mxSX--77" vertex="1">
          <mxGeometry x="30" width="150" height="30" as="geometry">
            <mxRectangle width="150" height="30" as="alternateBounds" />
          </mxGeometry>
        </mxCell>
        <mxCell id="tcN-wxtSRkhTtf9mxSX--80" value="" style="shape=tableRow;horizontal=0;startSize=0;swimlaneHead=0;swimlaneBody=0;fillColor=none;collapsible=0;dropTarget=0;points=[[0,0.5],[1,0.5]];portConstraint=eastwest;top=0;left=0;right=0;bottom=0;labelBackgroundColor=none;strokeColor=#D0CEE2;fontColor=#1A1A1A;" parent="tcN-wxtSRkhTtf9mxSX--70" vertex="1">
          <mxGeometry y="120" width="180" height="30" as="geometry" />
        </mxCell>
        <mxCell id="tcN-wxtSRkhTtf9mxSX--81" value="" style="shape=partialRectangle;connectable=0;fillColor=none;top=0;left=0;bottom=0;right=0;editable=1;overflow=hidden;labelBackgroundColor=none;strokeColor=#D0CEE2;fontColor=#1A1A1A;" parent="tcN-wxtSRkhTtf9mxSX--80" vertex="1">
          <mxGeometry width="30" height="30" as="geometry">
            <mxRectangle width="30" height="30" as="alternateBounds" />
          </mxGeometry>
        </mxCell>
        <mxCell id="tcN-wxtSRkhTtf9mxSX--82" value="" style="shape=partialRectangle;connectable=0;fillColor=none;top=0;left=0;bottom=0;right=0;align=left;spacingLeft=6;overflow=hidden;labelBackgroundColor=none;strokeColor=#D0CEE2;fontColor=#1A1A1A;" parent="tcN-wxtSRkhTtf9mxSX--80" vertex="1">
          <mxGeometry x="30" width="150" height="30" as="geometry">
            <mxRectangle width="150" height="30" as="alternateBounds" />
          </mxGeometry>
        </mxCell>
        <mxCell id="tcN-wxtSRkhTtf9mxSX--83" value="Play list" style="shape=table;startSize=30;container=1;collapsible=1;childLayout=tableLayout;fixedRows=1;rowLines=0;fontStyle=1;align=center;resizeLast=1;strokeColor=#b85450;labelBackgroundColor=none;fillColor=#f8cecc;" parent="1" vertex="1">
          <mxGeometry x="-71.11" y="59.44" width="180" height="160" as="geometry" />
        </mxCell>
        <mxCell id="tcN-wxtSRkhTtf9mxSX--84" value="" style="shape=tableRow;horizontal=0;startSize=0;swimlaneHead=0;swimlaneBody=0;fillColor=none;collapsible=0;dropTarget=0;points=[[0,0.5],[1,0.5]];portConstraint=eastwest;top=0;left=0;right=0;bottom=1;labelBackgroundColor=none;strokeColor=#D0CEE2;fontColor=#1A1A1A;" parent="tcN-wxtSRkhTtf9mxSX--83" vertex="1">
          <mxGeometry y="30" width="180" height="30" as="geometry" />
        </mxCell>
        <mxCell id="tcN-wxtSRkhTtf9mxSX--85" value="PK" style="shape=partialRectangle;connectable=0;fillColor=none;top=0;left=0;bottom=0;right=0;fontStyle=1;overflow=hidden;labelBackgroundColor=none;strokeColor=#D0CEE2;fontColor=#1A1A1A;" parent="tcN-wxtSRkhTtf9mxSX--84" vertex="1">
          <mxGeometry width="30" height="30" as="geometry">
            <mxRectangle width="30" height="30" as="alternateBounds" />
          </mxGeometry>
        </mxCell>
        <mxCell id="tcN-wxtSRkhTtf9mxSX--86" value="" style="shape=partialRectangle;connectable=0;fillColor=none;top=0;left=0;bottom=0;right=0;align=left;spacingLeft=6;fontStyle=5;overflow=hidden;labelBackgroundColor=none;strokeColor=#D0CEE2;fontColor=#1A1A1A;" parent="tcN-wxtSRkhTtf9mxSX--84" vertex="1">
          <mxGeometry x="30" width="150" height="30" as="geometry">
            <mxRectangle width="150" height="30" as="alternateBounds" />
          </mxGeometry>
        </mxCell>
        <mxCell id="tcN-wxtSRkhTtf9mxSX--87" value="" style="shape=tableRow;horizontal=0;startSize=0;swimlaneHead=0;swimlaneBody=0;fillColor=none;collapsible=0;dropTarget=0;points=[[0,0.5],[1,0.5]];portConstraint=eastwest;top=0;left=0;right=0;bottom=0;labelBackgroundColor=none;strokeColor=#D0CEE2;fontColor=#1A1A1A;" parent="tcN-wxtSRkhTtf9mxSX--83" vertex="1">
          <mxGeometry y="60" width="180" height="30" as="geometry" />
        </mxCell>
        <mxCell id="tcN-wxtSRkhTtf9mxSX--88" value="" style="shape=partialRectangle;connectable=0;fillColor=none;top=0;left=0;bottom=0;right=0;editable=1;overflow=hidden;labelBackgroundColor=none;strokeColor=#D0CEE2;fontColor=#1A1A1A;" parent="tcN-wxtSRkhTtf9mxSX--87" vertex="1">
          <mxGeometry width="30" height="30" as="geometry">
            <mxRectangle width="30" height="30" as="alternateBounds" />
          </mxGeometry>
        </mxCell>
        <mxCell id="tcN-wxtSRkhTtf9mxSX--89" value="Name" style="shape=partialRectangle;connectable=0;fillColor=none;top=0;left=0;bottom=0;right=0;align=left;spacingLeft=6;overflow=hidden;fontStyle=4;labelBackgroundColor=none;strokeColor=#D0CEE2;fontColor=#1A1A1A;" parent="tcN-wxtSRkhTtf9mxSX--87" vertex="1">
          <mxGeometry x="30" width="150" height="30" as="geometry">
            <mxRectangle width="150" height="30" as="alternateBounds" />
          </mxGeometry>
        </mxCell>
        <mxCell id="tcN-wxtSRkhTtf9mxSX--90" value="" style="shape=tableRow;horizontal=0;startSize=0;swimlaneHead=0;swimlaneBody=0;fillColor=none;collapsible=0;dropTarget=0;points=[[0,0.5],[1,0.5]];portConstraint=eastwest;top=0;left=0;right=0;bottom=0;labelBackgroundColor=none;strokeColor=#D0CEE2;fontColor=#1A1A1A;" parent="tcN-wxtSRkhTtf9mxSX--83" vertex="1">
          <mxGeometry y="90" width="180" height="30" as="geometry" />
        </mxCell>
        <mxCell id="tcN-wxtSRkhTtf9mxSX--91" value="" style="shape=partialRectangle;connectable=0;fillColor=none;top=0;left=0;bottom=0;right=0;editable=1;overflow=hidden;labelBackgroundColor=none;strokeColor=#D0CEE2;fontColor=#1A1A1A;" parent="tcN-wxtSRkhTtf9mxSX--90" vertex="1">
          <mxGeometry width="30" height="30" as="geometry">
            <mxRectangle width="30" height="30" as="alternateBounds" />
          </mxGeometry>
        </mxCell>
        <mxCell id="tcN-wxtSRkhTtf9mxSX--92" value="IsPublic" style="shape=partialRectangle;connectable=0;fillColor=none;top=0;left=0;bottom=0;right=0;align=left;spacingLeft=6;overflow=hidden;labelBackgroundColor=none;strokeColor=#D0CEE2;fontColor=#1A1A1A;" parent="tcN-wxtSRkhTtf9mxSX--90" vertex="1">
          <mxGeometry x="30" width="150" height="30" as="geometry">
            <mxRectangle width="150" height="30" as="alternateBounds" />
          </mxGeometry>
        </mxCell>
        <mxCell id="tcN-wxtSRkhTtf9mxSX--93" value="" style="shape=tableRow;horizontal=0;startSize=0;swimlaneHead=0;swimlaneBody=0;fillColor=none;collapsible=0;dropTarget=0;points=[[0,0.5],[1,0.5]];portConstraint=eastwest;top=0;left=0;right=0;bottom=0;labelBackgroundColor=none;strokeColor=#D0CEE2;fontColor=#1A1A1A;" parent="tcN-wxtSRkhTtf9mxSX--83" vertex="1">
          <mxGeometry y="120" width="180" height="30" as="geometry" />
        </mxCell>
        <mxCell id="tcN-wxtSRkhTtf9mxSX--94" value="" style="shape=partialRectangle;connectable=0;fillColor=none;top=0;left=0;bottom=0;right=0;editable=1;overflow=hidden;labelBackgroundColor=none;strokeColor=#D0CEE2;fontColor=#1A1A1A;" parent="tcN-wxtSRkhTtf9mxSX--93" vertex="1">
          <mxGeometry width="30" height="30" as="geometry">
            <mxRectangle width="30" height="30" as="alternateBounds" />
          </mxGeometry>
        </mxCell>
        <mxCell id="tcN-wxtSRkhTtf9mxSX--95" value="" style="shape=partialRectangle;connectable=0;fillColor=none;top=0;left=0;bottom=0;right=0;align=left;spacingLeft=6;overflow=hidden;labelBackgroundColor=none;strokeColor=#D0CEE2;fontColor=#1A1A1A;" parent="tcN-wxtSRkhTtf9mxSX--93" vertex="1">
          <mxGeometry x="30" width="150" height="30" as="geometry">
            <mxRectangle width="150" height="30" as="alternateBounds" />
          </mxGeometry>
        </mxCell>
        <mxCell id="tcN-wxtSRkhTtf9mxSX--96" value="Ticket" style="shape=table;startSize=30;container=1;collapsible=1;childLayout=tableLayout;fixedRows=1;rowLines=0;fontStyle=1;align=center;resizeLast=1;labelBackgroundColor=none;fillColor=#f8cecc;strokeColor=#b85450;" parent="1" vertex="1">
          <mxGeometry x="210" y="369" width="180" height="161" as="geometry" />
        </mxCell>
        <mxCell id="tcN-wxtSRkhTtf9mxSX--97" value="" style="shape=tableRow;horizontal=0;startSize=0;swimlaneHead=0;swimlaneBody=0;fillColor=none;collapsible=0;dropTarget=0;points=[[0,0.5],[1,0.5]];portConstraint=eastwest;top=0;left=0;right=0;bottom=1;labelBackgroundColor=none;strokeColor=#D0CEE2;fontColor=#1A1A1A;" parent="tcN-wxtSRkhTtf9mxSX--96" vertex="1">
          <mxGeometry y="30" width="180" height="30" as="geometry" />
        </mxCell>
        <mxCell id="tcN-wxtSRkhTtf9mxSX--98" value="PK" style="shape=partialRectangle;connectable=0;fillColor=none;top=0;left=0;bottom=0;right=0;fontStyle=1;overflow=hidden;labelBackgroundColor=none;strokeColor=#D0CEE2;fontColor=#1A1A1A;" parent="tcN-wxtSRkhTtf9mxSX--97" vertex="1">
          <mxGeometry width="30" height="30" as="geometry">
            <mxRectangle width="30" height="30" as="alternateBounds" />
          </mxGeometry>
        </mxCell>
        <mxCell id="tcN-wxtSRkhTtf9mxSX--99" value="TIcket ID" style="shape=partialRectangle;connectable=0;fillColor=none;top=0;left=0;bottom=0;right=0;align=left;spacingLeft=6;fontStyle=5;overflow=hidden;labelBackgroundColor=none;strokeColor=#D0CEE2;fontColor=#1A1A1A;" parent="tcN-wxtSRkhTtf9mxSX--97" vertex="1">
          <mxGeometry x="30" width="150" height="30" as="geometry">
            <mxRectangle width="150" height="30" as="alternateBounds" />
          </mxGeometry>
        </mxCell>
        <mxCell id="tcN-wxtSRkhTtf9mxSX--100" value="" style="shape=tableRow;horizontal=0;startSize=0;swimlaneHead=0;swimlaneBody=0;fillColor=none;collapsible=0;dropTarget=0;points=[[0,0.5],[1,0.5]];portConstraint=eastwest;top=0;left=0;right=0;bottom=0;labelBackgroundColor=none;strokeColor=#D0CEE2;fontColor=#1A1A1A;" parent="tcN-wxtSRkhTtf9mxSX--96" vertex="1">
          <mxGeometry y="60" width="180" height="30" as="geometry" />
        </mxCell>
        <mxCell id="tcN-wxtSRkhTtf9mxSX--101" value="" style="shape=partialRectangle;connectable=0;fillColor=none;top=0;left=0;bottom=0;right=0;editable=1;overflow=hidden;labelBackgroundColor=none;strokeColor=#D0CEE2;fontColor=#1A1A1A;" parent="tcN-wxtSRkhTtf9mxSX--100" vertex="1">
          <mxGeometry width="30" height="30" as="geometry">
            <mxRectangle width="30" height="30" as="alternateBounds" />
          </mxGeometry>
        </mxCell>
        <mxCell id="tcN-wxtSRkhTtf9mxSX--102" value="Price" style="shape=partialRectangle;connectable=0;fillColor=none;top=0;left=0;bottom=0;right=0;align=left;spacingLeft=6;overflow=hidden;labelBackgroundColor=none;strokeColor=#D0CEE2;fontColor=#1A1A1A;" parent="tcN-wxtSRkhTtf9mxSX--100" vertex="1">
          <mxGeometry x="30" width="150" height="30" as="geometry">
            <mxRectangle width="150" height="30" as="alternateBounds" />
          </mxGeometry>
        </mxCell>
        <mxCell id="tcN-wxtSRkhTtf9mxSX--103" value="" style="shape=tableRow;horizontal=0;startSize=0;swimlaneHead=0;swimlaneBody=0;fillColor=none;collapsible=0;dropTarget=0;points=[[0,0.5],[1,0.5]];portConstraint=eastwest;top=0;left=0;right=0;bottom=0;labelBackgroundColor=none;strokeColor=#D0CEE2;fontColor=#1A1A1A;" parent="tcN-wxtSRkhTtf9mxSX--96" vertex="1">
          <mxGeometry y="90" width="180" height="30" as="geometry" />
        </mxCell>
        <mxCell id="tcN-wxtSRkhTtf9mxSX--104" value="" style="shape=partialRectangle;connectable=0;fillColor=none;top=0;left=0;bottom=0;right=0;editable=1;overflow=hidden;labelBackgroundColor=none;strokeColor=#D0CEE2;fontColor=#1A1A1A;" parent="tcN-wxtSRkhTtf9mxSX--103" vertex="1">
          <mxGeometry width="30" height="30" as="geometry">
            <mxRectangle width="30" height="30" as="alternateBounds" />
          </mxGeometry>
        </mxCell>
        <mxCell id="tcN-wxtSRkhTtf9mxSX--105" value="PurchaseDate" style="shape=partialRectangle;connectable=0;fillColor=none;top=0;left=0;bottom=0;right=0;align=left;spacingLeft=6;overflow=hidden;labelBackgroundColor=none;strokeColor=#D0CEE2;fontColor=#1A1A1A;" parent="tcN-wxtSRkhTtf9mxSX--103" vertex="1">
          <mxGeometry x="30" width="150" height="30" as="geometry">
            <mxRectangle width="150" height="30" as="alternateBounds" />
          </mxGeometry>
        </mxCell>
        <mxCell id="tcN-wxtSRkhTtf9mxSX--106" value="" style="shape=tableRow;horizontal=0;startSize=0;swimlaneHead=0;swimlaneBody=0;fillColor=none;collapsible=0;dropTarget=0;points=[[0,0.5],[1,0.5]];portConstraint=eastwest;top=0;left=0;right=0;bottom=0;labelBackgroundColor=none;strokeColor=#D0CEE2;fontColor=#1A1A1A;" parent="tcN-wxtSRkhTtf9mxSX--96" vertex="1">
          <mxGeometry y="120" width="180" height="30" as="geometry" />
        </mxCell>
        <mxCell id="tcN-wxtSRkhTtf9mxSX--107" value="" style="shape=partialRectangle;connectable=0;fillColor=none;top=0;left=0;bottom=0;right=0;editable=1;overflow=hidden;labelBackgroundColor=none;strokeColor=#D0CEE2;fontColor=#1A1A1A;" parent="tcN-wxtSRkhTtf9mxSX--106" vertex="1">
          <mxGeometry width="30" height="30" as="geometry">
            <mxRectangle width="30" height="30" as="alternateBounds" />
          </mxGeometry>
        </mxCell>
        <mxCell id="tcN-wxtSRkhTtf9mxSX--108" value="" style="shape=partialRectangle;connectable=0;fillColor=none;top=0;left=0;bottom=0;right=0;align=left;spacingLeft=6;overflow=hidden;labelBackgroundColor=none;strokeColor=#D0CEE2;fontColor=#1A1A1A;" parent="tcN-wxtSRkhTtf9mxSX--106" vertex="1">
          <mxGeometry x="30" width="150" height="30" as="geometry">
            <mxRectangle width="150" height="30" as="alternateBounds" />
          </mxGeometry>
        </mxCell>
        <mxCell id="tcN-wxtSRkhTtf9mxSX--109" value="Normal" style="swimlane;fontStyle=0;childLayout=stackLayout;horizontal=1;startSize=26;horizontalStack=0;resizeParent=1;resizeParentMax=0;resizeLast=0;collapsible=1;marginBottom=0;align=center;fontSize=14;labelBackgroundColor=none;fillColor=#5D7F99;strokeColor=#D0CEE2;fontColor=#1A1A1A;" parent="1" vertex="1">
          <mxGeometry x="-280" y="-91" width="160" height="116" as="geometry" />
        </mxCell>
        <mxCell id="tcN-wxtSRkhTtf9mxSX--110" value="Item 1" style="text;strokeColor=none;fillColor=none;spacingLeft=4;spacingRight=4;overflow=hidden;rotatable=0;points=[[0,0.5],[1,0.5]];portConstraint=eastwest;fontSize=12;labelBackgroundColor=none;fontColor=#1A1A1A;" parent="tcN-wxtSRkhTtf9mxSX--109" vertex="1">
          <mxGeometry y="26" width="160" height="30" as="geometry" />
        </mxCell>
        <mxCell id="tcN-wxtSRkhTtf9mxSX--111" value="Item 2" style="text;strokeColor=none;fillColor=none;spacingLeft=4;spacingRight=4;overflow=hidden;rotatable=0;points=[[0,0.5],[1,0.5]];portConstraint=eastwest;fontSize=12;labelBackgroundColor=none;fontColor=#1A1A1A;" parent="tcN-wxtSRkhTtf9mxSX--109" vertex="1">
          <mxGeometry y="56" width="160" height="30" as="geometry" />
        </mxCell>
        <mxCell id="tcN-wxtSRkhTtf9mxSX--112" value="Item 3" style="text;strokeColor=none;fillColor=none;spacingLeft=4;spacingRight=4;overflow=hidden;rotatable=0;points=[[0,0.5],[1,0.5]];portConstraint=eastwest;fontSize=12;labelBackgroundColor=none;fontColor=#1A1A1A;" parent="tcN-wxtSRkhTtf9mxSX--109" vertex="1">
          <mxGeometry y="86" width="160" height="30" as="geometry" />
        </mxCell>
        <mxCell id="tcN-wxtSRkhTtf9mxSX--113" value="Premium" style="swimlane;fontStyle=0;childLayout=stackLayout;horizontal=1;startSize=26;horizontalStack=0;resizeParent=1;resizeParentMax=0;resizeLast=0;collapsible=1;marginBottom=0;align=center;fontSize=14;labelBackgroundColor=none;fillColor=#f8cecc;strokeColor=#b85450;" parent="1" vertex="1">
          <mxGeometry x="-505" y="30" width="160" height="200" as="geometry" />
        </mxCell>
        <mxCell id="tcN-wxtSRkhTtf9mxSX--114" value="Start Time&#xa;end Time&#xa;" style="text;strokeColor=none;fillColor=none;spacingLeft=4;spacingRight=4;overflow=hidden;rotatable=0;points=[[0,0.5],[1,0.5]];portConstraint=eastwest;fontSize=12;labelBackgroundColor=none;fontColor=#1A1A1A;" parent="tcN-wxtSRkhTtf9mxSX--113" vertex="1">
          <mxGeometry y="26" width="160" height="174" as="geometry" />
        </mxCell>
        <mxCell id="tcN-wxtSRkhTtf9mxSX--115" value="User Premium" style="swimlane;fontStyle=0;childLayout=stackLayout;horizontal=1;startSize=26;horizontalStack=0;resizeParent=1;resizeParentMax=0;resizeLast=0;collapsible=1;marginBottom=0;align=center;fontSize=14;labelBackgroundColor=none;fillColor=#5D7F99;strokeColor=#D0CEE2;fontColor=#1A1A1A;" parent="1" vertex="1">
          <mxGeometry x="-590" y="382" width="160" height="116" as="geometry" />
        </mxCell>
        <mxCell id="tcN-wxtSRkhTtf9mxSX--116" value="Item 1" style="text;strokeColor=none;fillColor=none;spacingLeft=4;spacingRight=4;overflow=hidden;rotatable=0;points=[[0,0.5],[1,0.5]];portConstraint=eastwest;fontSize=12;labelBackgroundColor=none;fontColor=#1A1A1A;" parent="tcN-wxtSRkhTtf9mxSX--115" vertex="1">
          <mxGeometry y="26" width="160" height="30" as="geometry" />
        </mxCell>
        <mxCell id="tcN-wxtSRkhTtf9mxSX--117" value="Item 2" style="text;strokeColor=none;fillColor=none;spacingLeft=4;spacingRight=4;overflow=hidden;rotatable=0;points=[[0,0.5],[1,0.5]];portConstraint=eastwest;fontSize=12;labelBackgroundColor=none;fontColor=#1A1A1A;" parent="tcN-wxtSRkhTtf9mxSX--115" vertex="1">
          <mxGeometry y="56" width="160" height="30" as="geometry" />
        </mxCell>
        <mxCell id="tcN-wxtSRkhTtf9mxSX--118" value="Item 3" style="text;strokeColor=none;fillColor=none;spacingLeft=4;spacingRight=4;overflow=hidden;rotatable=0;points=[[0,0.5],[1,0.5]];portConstraint=eastwest;fontSize=12;labelBackgroundColor=none;fontColor=#1A1A1A;" parent="tcN-wxtSRkhTtf9mxSX--115" vertex="1">
          <mxGeometry y="86" width="160" height="30" as="geometry" />
        </mxCell>
        <mxCell id="tcN-wxtSRkhTtf9mxSX--119" value="Artists" style="swimlane;fontStyle=0;childLayout=stackLayout;horizontal=1;startSize=26;horizontalStack=0;resizeParent=1;resizeParentMax=0;resizeLast=0;collapsible=1;marginBottom=0;align=center;fontSize=14;labelBackgroundColor=none;fillColor=#f8cecc;strokeColor=#b85450;" parent="1" vertex="1">
          <mxGeometry x="-395" y="381" width="160" height="56" as="geometry" />
        </mxCell>
        <mxCell id="tcN-wxtSRkhTtf9mxSX--120" value="Bio" style="text;strokeColor=none;fillColor=none;spacingLeft=4;spacingRight=4;overflow=hidden;rotatable=0;points=[[0,0.5],[1,0.5]];portConstraint=eastwest;fontSize=12;labelBackgroundColor=none;fontColor=#1A1A1A;" parent="tcN-wxtSRkhTtf9mxSX--119" vertex="1">
          <mxGeometry y="26" width="160" height="30" as="geometry" />
        </mxCell>
        <mxCell id="tcN-wxtSRkhTtf9mxSX--142" value="Has" style="shape=rhombus;perimeter=rhombusPerimeter;whiteSpace=wrap;html=1;align=center;labelBackgroundColor=none;fillColor=#e1d5e7;strokeColor=#9673a6;" parent="1" vertex="1">
          <mxGeometry x="-370" y="719" width="90" height="41" as="geometry" />
        </mxCell>
        <mxCell id="tcN-wxtSRkhTtf9mxSX--143" value="" style="edgeStyle=entityRelationEdgeStyle;fontSize=12;html=1;endArrow=ERoneToMany;rounded=0;exitX=1;exitY=0.5;exitDx=0;exitDy=0;labelBackgroundColor=none;strokeColor=#736CA8;fontColor=default;" parent="1" source="tcN-wxtSRkhTtf9mxSX--142" edge="1">
          <mxGeometry width="100" height="100" relative="1" as="geometry">
            <mxPoint x="-100" y="990" as="sourcePoint" />
            <mxPoint x="-210" y="741" as="targetPoint" />
          </mxGeometry>
        </mxCell>
        <mxCell id="tcN-wxtSRkhTtf9mxSX--144" value="" style="edgeStyle=entityRelationEdgeStyle;fontSize=12;html=1;endArrow=ERzeroToOne;endFill=1;rounded=0;exitX=0;exitY=0.5;exitDx=0;exitDy=0;entryX=0.987;entryY=-0.005;entryDx=0;entryDy=0;entryPerimeter=0;labelBackgroundColor=none;strokeColor=#736CA8;fontColor=default;" parent="1" source="tcN-wxtSRkhTtf9mxSX--142" target="tcN-wxtSRkhTtf9mxSX--64" edge="1">
          <mxGeometry width="100" height="100" relative="1" as="geometry">
            <mxPoint x="-110" y="870" as="sourcePoint" />
            <mxPoint x="-28.31581517269737" y="870" as="targetPoint" />
          </mxGeometry>
        </mxCell>
        <mxCell id="tcN-wxtSRkhTtf9mxSX--145" style="rounded=0;orthogonalLoop=1;jettySize=auto;html=1;exitX=-0.099;exitY=0.542;exitDx=0;exitDy=0;exitPerimeter=0;labelBackgroundColor=none;strokeColor=#736CA8;fontColor=default;" parent="1" source="tcN-wxtSRkhTtf9mxSX--146" target="tcN-wxtSRkhTtf9mxSX--114" edge="1">
          <mxGeometry relative="1" as="geometry">
            <mxPoint x="-505" y="255.5" as="targetPoint" />
            <mxPoint x="-387.5" y="504.5" as="sourcePoint" />
          </mxGeometry>
        </mxCell>
        <mxCell id="tcN-wxtSRkhTtf9mxSX--146" value="" style="strokeWidth=2;html=1;shape=mxgraph.flowchart.annotation_1;align=left;pointerEvents=1;direction=south;labelBackgroundColor=none;fillColor=#5D7F99;strokeColor=#D0CEE2;fontColor=#1A1A1A;" parent="1" vertex="1">
          <mxGeometry x="-510" y="340" width="185" height="41" as="geometry" />
        </mxCell>
        <mxCell id="tcN-wxtSRkhTtf9mxSX--147" value="Friend" style="shape=rhombus;perimeter=rhombusPerimeter;whiteSpace=wrap;html=1;align=center;labelBackgroundColor=none;fillColor=#e1d5e7;strokeColor=#9673a6;" parent="1" vertex="1">
          <mxGeometry x="-660" y="32.5" width="80" height="32.5" as="geometry" />
        </mxCell>
        <mxCell id="tcN-wxtSRkhTtf9mxSX--148" value="" style="edgeStyle=entityRelationEdgeStyle;fontSize=12;html=1;endArrow=ERzeroToMany;endFill=1;rounded=0;exitX=0.5;exitY=0;exitDx=0;exitDy=0;labelBackgroundColor=none;strokeColor=#736CA8;fontColor=default;" parent="1" source="tcN-wxtSRkhTtf9mxSX--147" edge="1">
          <mxGeometry width="100" height="100" relative="1" as="geometry">
            <mxPoint x="-606.05" y="150" as="sourcePoint" />
            <mxPoint x="-506" y="40" as="targetPoint" />
            <Array as="points">
              <mxPoint x="-560" y="50" />
              <mxPoint x="-550" y="40" />
            </Array>
          </mxGeometry>
        </mxCell>
        <mxCell id="tcN-wxtSRkhTtf9mxSX--149" value="" style="fontSize=12;html=1;endArrow=ERzeroToMany;endFill=1;rounded=0;exitX=0.5;exitY=1;exitDx=0;exitDy=0;entryX=0.007;entryY=-0.006;entryDx=0;entryDy=0;entryPerimeter=0;labelBackgroundColor=none;strokeColor=#736CA8;fontColor=default;" parent="1" source="tcN-wxtSRkhTtf9mxSX--147" target="tcN-wxtSRkhTtf9mxSX--114" edge="1">
          <mxGeometry width="100" height="100" relative="1" as="geometry">
            <mxPoint x="-605" y="210" as="sourcePoint" />
            <mxPoint x="-505" y="80" as="targetPoint" />
          </mxGeometry>
        </mxCell>
        <mxCell id="tcN-wxtSRkhTtf9mxSX--151" value="" style="fontSize=12;html=1;endArrow=ERmandOne;rounded=0;elbow=vertical;entryX=0.997;entryY=0.104;entryDx=0;entryDy=0;entryPerimeter=0;exitX=0;exitY=0.5;exitDx=0;exitDy=0;labelBackgroundColor=none;strokeColor=#736CA8;fontColor=default;" parent="1" source="tcN-wxtSRkhTtf9mxSX--152" target="tcN-wxtSRkhTtf9mxSX--113" edge="1">
          <mxGeometry width="100" height="100" relative="1" as="geometry">
            <mxPoint x="-260" y="140" as="sourcePoint" />
            <mxPoint x="-325" y="87.1400000000001" as="targetPoint" />
            <Array as="points" />
          </mxGeometry>
        </mxCell>
        <mxCell id="tcN-wxtSRkhTtf9mxSX--152" value="Creat" style="shape=rhombus;double=1;perimeter=rhombusPerimeter;whiteSpace=wrap;html=1;align=center;labelBackgroundColor=none;fillColor=#e1d5e7;strokeColor=#9673a6;" parent="1" vertex="1">
          <mxGeometry x="-268.75" y="35" width="90" height="30" as="geometry" />
        </mxCell>
        <mxCell id="tcN-wxtSRkhTtf9mxSX--153" value="" style="shape=link;html=1;rounded=0;curved=1;elbow=vertical;exitX=0;exitY=1;exitDx=0;exitDy=0;entryX=1;entryY=1;entryDx=0;entryDy=0;labelBackgroundColor=none;strokeColor=#736CA8;fontColor=default;" parent="1" source="tcN-wxtSRkhTtf9mxSX--83" target="tcN-wxtSRkhTtf9mxSX--83" edge="1">
          <mxGeometry relative="1" as="geometry">
            <mxPoint x="-113.61" y="259.44" as="sourcePoint" />
            <mxPoint x="46.39" y="259.44" as="targetPoint" />
          </mxGeometry>
        </mxCell>
        <mxCell id="tcN-wxtSRkhTtf9mxSX--154" value="" style="shape=link;html=1;rounded=0;curved=1;elbow=vertical;exitX=1;exitY=1;exitDx=0;exitDy=0;entryX=1;entryY=0;entryDx=0;entryDy=0;labelBackgroundColor=none;strokeColor=#736CA8;fontColor=default;" parent="1" source="tcN-wxtSRkhTtf9mxSX--83" target="tcN-wxtSRkhTtf9mxSX--83" edge="1">
          <mxGeometry relative="1" as="geometry">
            <mxPoint x="-61.11" y="229.44" as="sourcePoint" />
            <mxPoint x="118.89" y="229.44" as="targetPoint" />
          </mxGeometry>
        </mxCell>
        <mxCell id="tcN-wxtSRkhTtf9mxSX--155" value="" style="shape=link;html=1;rounded=0;curved=1;elbow=vertical;entryX=0;entryY=0;entryDx=0;entryDy=0;exitX=0;exitY=1;exitDx=0;exitDy=0;labelBackgroundColor=none;strokeColor=#736CA8;fontColor=default;" parent="1" source="tcN-wxtSRkhTtf9mxSX--83" target="tcN-wxtSRkhTtf9mxSX--83" edge="1">
          <mxGeometry relative="1" as="geometry">
            <mxPoint x="-143.61" y="259.44" as="sourcePoint" />
            <mxPoint x="16.39" y="259.44" as="targetPoint" />
          </mxGeometry>
        </mxCell>
        <mxCell id="tcN-wxtSRkhTtf9mxSX--156" value="" style="shape=link;html=1;rounded=0;curved=1;elbow=vertical;labelBackgroundColor=none;strokeColor=#736CA8;fontColor=default;" parent="1" edge="1">
          <mxGeometry relative="1" as="geometry">
            <mxPoint x="-71.11" y="59.44" as="sourcePoint" />
            <mxPoint x="108.89" y="59.44" as="targetPoint" />
          </mxGeometry>
        </mxCell>
        <mxCell id="tcN-wxtSRkhTtf9mxSX--157" value="Favorite" style="shape=rhombus;perimeter=rhombusPerimeter;whiteSpace=wrap;html=1;align=center;strokeColor=#9673a6;labelBackgroundColor=none;fillColor=#e1d5e7;" parent="1" vertex="1">
          <mxGeometry x="-280" y="67.5" width="80" height="30" as="geometry" />
        </mxCell>
        <mxCell id="tcN-wxtSRkhTtf9mxSX--158" value="" style="fontSize=12;html=1;endArrow=ERzeroToMany;endFill=1;rounded=0;exitX=1;exitY=0.5;exitDx=0;exitDy=0;edgeStyle=elbowEdgeStyle;labelBackgroundColor=none;strokeColor=#736CA8;fontColor=default;" parent="1" source="tcN-wxtSRkhTtf9mxSX--157" edge="1">
          <mxGeometry width="100" height="100" relative="1" as="geometry">
            <mxPoint x="-90" y="420" as="sourcePoint" />
            <mxPoint x="-70" y="90" as="targetPoint" />
            <Array as="points">
              <mxPoint x="-130" y="90" />
            </Array>
          </mxGeometry>
        </mxCell>
        <mxCell id="tcN-wxtSRkhTtf9mxSX--159" value="" style="fontSize=12;html=1;endArrow=ERzeroToMany;endFill=1;rounded=0;exitX=0;exitY=0.5;exitDx=0;exitDy=0;entryX=0.992;entryY=0.063;entryDx=0;entryDy=0;entryPerimeter=0;edgeStyle=elbowEdgeStyle;labelBackgroundColor=none;strokeColor=#736CA8;fontColor=default;" parent="1" source="tcN-wxtSRkhTtf9mxSX--157" target="tcN-wxtSRkhTtf9mxSX--114" edge="1">
          <mxGeometry width="100" height="100" relative="1" as="geometry">
            <mxPoint x="-90" y="420" as="sourcePoint" />
            <mxPoint x="-325" y="110" as="targetPoint" />
            <Array as="points">
              <mxPoint x="-293" y="100" />
            </Array>
          </mxGeometry>
        </mxCell>
        <mxCell id="tcN-wxtSRkhTtf9mxSX--161" value="" style="fontSize=12;html=1;endArrow=ERzeroToMany;endFill=1;rounded=0;exitX=0.5;exitY=1;exitDx=0;exitDy=0;edgeStyle=elbowEdgeStyle;labelBackgroundColor=none;strokeColor=#736CA8;fontColor=default;" parent="1" source="tcN-wxtSRkhTtf9mxSX--164" edge="1">
          <mxGeometry width="100" height="100" relative="1" as="geometry">
            <mxPoint x="-140" y="450" as="sourcePoint" />
            <mxPoint x="-620" y="730" as="targetPoint" />
            <Array as="points">
              <mxPoint x="-730" y="660" />
            </Array>
          </mxGeometry>
        </mxCell>
        <mxCell id="tcN-wxtSRkhTtf9mxSX--162" value="Favorite" style="shape=rhombus;perimeter=rhombusPerimeter;whiteSpace=wrap;html=1;align=center;strokeColor=#9673a6;labelBackgroundColor=none;fillColor=#e1d5e7;" parent="1" vertex="1">
          <mxGeometry x="-266.87" y="470" width="100" height="40" as="geometry" />
        </mxCell>
        <mxCell id="tcN-wxtSRkhTtf9mxSX--163" value="" style="fontSize=12;html=1;endArrow=ERzeroToMany;endFill=1;rounded=0;elbow=vertical;exitX=0.5;exitY=0;exitDx=0;exitDy=0;edgeStyle=orthogonalEdgeStyle;entryX=0.711;entryY=1.002;entryDx=0;entryDy=0;entryPerimeter=0;labelBackgroundColor=none;strokeColor=#736CA8;fontColor=default;" parent="1" source="tcN-wxtSRkhTtf9mxSX--162" target="tcN-wxtSRkhTtf9mxSX--114" edge="1">
          <mxGeometry width="100" height="100" relative="1" as="geometry">
            <mxPoint x="-220" y="470" as="sourcePoint" />
            <mxPoint x="-410" y="240" as="targetPoint" />
            <Array as="points">
              <mxPoint x="-219" y="330" />
              <mxPoint x="-391" y="330" />
            </Array>
          </mxGeometry>
        </mxCell>
        <mxCell id="tcN-wxtSRkhTtf9mxSX--164" value="Favorite" style="shape=rhombus;perimeter=rhombusPerimeter;whiteSpace=wrap;html=1;align=center;strokeColor=#9673a6;labelBackgroundColor=none;fillColor=#e1d5e7;" parent="1" vertex="1">
          <mxGeometry x="-760" y="540" width="60" height="40" as="geometry" />
        </mxCell>
        <mxCell id="tcN-wxtSRkhTtf9mxSX--165" value="" style="edgeStyle=elbowEdgeStyle;fontSize=12;html=1;endArrow=ERzeroToMany;endFill=1;rounded=0;exitX=0.5;exitY=0;exitDx=0;exitDy=0;entryX=0;entryY=0.5;entryDx=0;entryDy=0;labelBackgroundColor=none;strokeColor=#736CA8;fontColor=default;" parent="1" source="tcN-wxtSRkhTtf9mxSX--164" target="tcN-wxtSRkhTtf9mxSX--114" edge="1">
          <mxGeometry width="100" height="100" relative="1" as="geometry">
            <mxPoint x="-680" y="510" as="sourcePoint" />
            <mxPoint x="-520" y="220" as="targetPoint" />
            <Array as="points">
              <mxPoint x="-730" y="400" />
            </Array>
          </mxGeometry>
        </mxCell>
        <mxCell id="tcN-wxtSRkhTtf9mxSX--166" value="Message" style="shape=rhombus;perimeter=rhombusPerimeter;whiteSpace=wrap;html=1;align=center;strokeColor=#9673a6;labelBackgroundColor=none;fillColor=#e1d5e7;" parent="1" vertex="1">
          <mxGeometry x="-680" y="70" width="80" height="27.5" as="geometry" />
        </mxCell>
        <mxCell id="tcN-wxtSRkhTtf9mxSX--167" value="" style="fontSize=12;html=1;endArrow=ERzeroToMany;endFill=1;rounded=0;elbow=vertical;entryX=-0.001;entryY=0.068;entryDx=0;entryDy=0;exitX=1;exitY=0.5;exitDx=0;exitDy=0;entryPerimeter=0;labelBackgroundColor=none;strokeColor=#736CA8;fontColor=default;" parent="1" source="tcN-wxtSRkhTtf9mxSX--166" target="tcN-wxtSRkhTtf9mxSX--114" edge="1">
          <mxGeometry width="100" height="100" relative="1" as="geometry">
            <mxPoint x="-720" y="220" as="sourcePoint" />
            <mxPoint x="-505" y="140" as="targetPoint" />
          </mxGeometry>
        </mxCell>
        <mxCell id="tcN-wxtSRkhTtf9mxSX--168" value="" style="fontSize=12;html=1;endArrow=ERzeroToMany;endFill=1;rounded=0;elbow=vertical;exitX=0.5;exitY=1;exitDx=0;exitDy=0;entryX=0.002;entryY=0.173;entryDx=0;entryDy=0;entryPerimeter=0;labelBackgroundColor=none;strokeColor=#736CA8;fontColor=default;" parent="1" source="tcN-wxtSRkhTtf9mxSX--166" target="tcN-wxtSRkhTtf9mxSX--114" edge="1">
          <mxGeometry width="100" height="100" relative="1" as="geometry">
            <mxPoint x="-720" y="220" as="sourcePoint" />
            <mxPoint x="-505" y="170" as="targetPoint" />
          </mxGeometry>
        </mxCell>
        <mxCell id="tcN-wxtSRkhTtf9mxSX--169" value="Follower" style="shape=rhombus;perimeter=rhombusPerimeter;whiteSpace=wrap;html=1;align=center;strokeColor=#9673a6;labelBackgroundColor=none;fillColor=#e1d5e7;" parent="1" vertex="1">
          <mxGeometry x="-730" y="100" width="80" height="30" as="geometry" />
        </mxCell>
        <mxCell id="tcN-wxtSRkhTtf9mxSX--170" value="" style="edgeStyle=entityRelationEdgeStyle;fontSize=12;html=1;endArrow=ERzeroToMany;endFill=1;rounded=0;elbow=vertical;entryX=0.004;entryY=0.261;entryDx=0;entryDy=0;entryPerimeter=0;exitX=1;exitY=0.5;exitDx=0;exitDy=0;labelBackgroundColor=none;strokeColor=#736CA8;fontColor=default;" parent="1" source="tcN-wxtSRkhTtf9mxSX--169" target="tcN-wxtSRkhTtf9mxSX--114" edge="1">
          <mxGeometry width="100" height="100" relative="1" as="geometry">
            <mxPoint x="-620" y="220" as="sourcePoint" />
            <mxPoint x="-503.55999999999995" y="190.03999999999996" as="targetPoint" />
          </mxGeometry>
        </mxCell>
        <mxCell id="tcN-wxtSRkhTtf9mxSX--171" value="" style="edgeStyle=entityRelationEdgeStyle;fontSize=12;html=1;endArrow=ERzeroToMany;endFill=1;rounded=0;elbow=vertical;exitX=0.5;exitY=1;exitDx=0;exitDy=0;entryX=-0.009;entryY=0.379;entryDx=0;entryDy=0;entryPerimeter=0;labelBackgroundColor=none;strokeColor=#736CA8;fontColor=default;" parent="1" source="tcN-wxtSRkhTtf9mxSX--169" target="tcN-wxtSRkhTtf9mxSX--114" edge="1">
          <mxGeometry width="100" height="100" relative="1" as="geometry">
            <mxPoint x="-620" y="220" as="sourcePoint" />
            <mxPoint x="-505.3599999999999" y="210.3449999999998" as="targetPoint" />
          </mxGeometry>
        </mxCell>
        <mxCell id="tcN-wxtSRkhTtf9mxSX--172" value="accept" style="ellipse;whiteSpace=wrap;html=1;align=center;strokeColor=#005700;labelBackgroundColor=none;fillColor=#008a00;fontColor=#ffffff;" parent="1" vertex="1">
          <mxGeometry x="-730" y="41.25" width="60" height="15" as="geometry" />
        </mxCell>
        <mxCell id="tcN-wxtSRkhTtf9mxSX--173" value="Has" style="shape=rhombus;perimeter=rhombusPerimeter;whiteSpace=wrap;html=1;align=center;strokeColor=#9673a6;labelBackgroundColor=none;fillColor=#e1d5e7;" parent="1" vertex="1">
          <mxGeometry x="270" y="261.5" width="60" height="35" as="geometry" />
        </mxCell>
        <mxCell id="tcN-wxtSRkhTtf9mxSX--174" value="" style="fontSize=12;html=1;endArrow=ERoneToMany;rounded=0;exitX=0.5;exitY=1;exitDx=0;exitDy=0;labelBackgroundColor=none;strokeColor=#736CA8;fontColor=default;" parent="1" source="tcN-wxtSRkhTtf9mxSX--173" target="tcN-wxtSRkhTtf9mxSX--96" edge="1">
          <mxGeometry width="100" height="100" relative="1" as="geometry">
            <mxPoint x="320" y="69" as="sourcePoint" />
            <mxPoint x="150" y="39" as="targetPoint" />
          </mxGeometry>
        </mxCell>
        <mxCell id="tcN-wxtSRkhTtf9mxSX--175" value="" style="endArrow=none;html=1;rounded=0;startArrow=ERmandOne;startFill=0;entryX=0.5;entryY=0;entryDx=0;entryDy=0;exitX=0.5;exitY=1;exitDx=0;exitDy=0;labelBackgroundColor=none;strokeColor=#736CA8;fontColor=default;" parent="1" source="tcN-wxtSRkhTtf9mxSX--44" target="tcN-wxtSRkhTtf9mxSX--173" edge="1">
          <mxGeometry relative="1" as="geometry">
            <mxPoint x="-330" y="139" as="sourcePoint" />
            <mxPoint x="-170" y="139" as="targetPoint" />
          </mxGeometry>
        </mxCell>
        <mxCell id="tcN-wxtSRkhTtf9mxSX--176" value="" style="endArrow=none;html=1;rounded=0;exitX=0.5;exitY=0;exitDx=0;exitDy=0;labelBackgroundColor=none;strokeColor=#736CA8;fontColor=default;" parent="1" edge="1">
          <mxGeometry relative="1" as="geometry">
            <mxPoint x="-415" y="30" as="sourcePoint" />
            <mxPoint x="-415" y="-160" as="targetPoint" />
          </mxGeometry>
        </mxCell>
        <mxCell id="tcN-wxtSRkhTtf9mxSX--177" value="" style="endArrow=none;html=1;rounded=0;labelBackgroundColor=none;strokeColor=#736CA8;fontColor=default;" parent="1" edge="1">
          <mxGeometry relative="1" as="geometry">
            <mxPoint x="-420" y="-160" as="sourcePoint" />
            <mxPoint x="-210" y="-160" as="targetPoint" />
          </mxGeometry>
        </mxCell>
        <mxCell id="tcN-wxtSRkhTtf9mxSX--178" value="" style="endArrow=none;html=1;rounded=0;exitX=0.434;exitY=0.008;exitDx=0;exitDy=0;exitPerimeter=0;labelBackgroundColor=none;strokeColor=#736CA8;fontColor=default;" parent="1" source="tcN-wxtSRkhTtf9mxSX--109" edge="1">
          <mxGeometry relative="1" as="geometry">
            <mxPoint x="10" y="20" as="sourcePoint" />
            <mxPoint x="-210" y="-160" as="targetPoint" />
          </mxGeometry>
        </mxCell>
        <mxCell id="tcN-wxtSRkhTtf9mxSX--179" value="" style="endArrow=classicThin;html=1;rounded=0;endFill=0;labelBackgroundColor=none;strokeColor=#736CA8;fontColor=default;" parent="1" edge="1">
          <mxGeometry relative="1" as="geometry">
            <mxPoint x="-310" y="-160" as="sourcePoint" />
            <mxPoint x="-310" y="-220" as="targetPoint" />
          </mxGeometry>
        </mxCell>
        <mxCell id="tcN-wxtSRkhTtf9mxSX--180" value="User" style="shape=table;startSize=35;container=1;collapsible=1;childLayout=tableLayout;fixedRows=1;rowLines=0;fontStyle=1;align=center;resizeLast=1;labelBackgroundColor=none;fillColor=#f8cecc;strokeColor=#b85450;" parent="1" vertex="1">
          <mxGeometry x="-400" y="-440" width="180" height="220" as="geometry" />
        </mxCell>
        <mxCell id="tcN-wxtSRkhTtf9mxSX--181" value="" style="shape=tableRow;horizontal=0;startSize=0;swimlaneHead=0;swimlaneBody=0;fillColor=none;collapsible=0;dropTarget=0;points=[[0,0.5],[1,0.5]];portConstraint=eastwest;top=0;left=0;right=0;bottom=1;labelBackgroundColor=none;strokeColor=#D0CEE2;fontColor=#1A1A1A;" parent="tcN-wxtSRkhTtf9mxSX--180" vertex="1">
          <mxGeometry y="35" width="180" height="30" as="geometry" />
        </mxCell>
        <mxCell id="tcN-wxtSRkhTtf9mxSX--182" value="PK" style="shape=partialRectangle;connectable=0;fillColor=none;top=0;left=0;bottom=0;right=0;fontStyle=1;overflow=hidden;labelBackgroundColor=none;strokeColor=#D0CEE2;fontColor=#1A1A1A;" parent="tcN-wxtSRkhTtf9mxSX--181" vertex="1">
          <mxGeometry width="30" height="30" as="geometry">
            <mxRectangle width="30" height="30" as="alternateBounds" />
          </mxGeometry>
        </mxCell>
        <mxCell id="tcN-wxtSRkhTtf9mxSX--183" value="User ID" style="shape=partialRectangle;connectable=0;fillColor=none;top=0;left=0;bottom=0;right=0;align=left;spacingLeft=6;fontStyle=5;overflow=hidden;labelBackgroundColor=none;strokeColor=#D0CEE2;fontColor=#1A1A1A;" parent="tcN-wxtSRkhTtf9mxSX--181" vertex="1">
          <mxGeometry x="30" width="150" height="30" as="geometry">
            <mxRectangle width="150" height="30" as="alternateBounds" />
          </mxGeometry>
        </mxCell>
        <mxCell id="tcN-wxtSRkhTtf9mxSX--184" value="" style="shape=tableRow;horizontal=0;startSize=0;swimlaneHead=0;swimlaneBody=0;fillColor=none;collapsible=0;dropTarget=0;points=[[0,0.5],[1,0.5]];portConstraint=eastwest;top=0;left=0;right=0;bottom=0;labelBackgroundColor=none;strokeColor=#D0CEE2;fontColor=#1A1A1A;" parent="tcN-wxtSRkhTtf9mxSX--180" vertex="1">
          <mxGeometry y="65" width="180" height="30" as="geometry" />
        </mxCell>
        <mxCell id="tcN-wxtSRkhTtf9mxSX--185" value="" style="shape=partialRectangle;connectable=0;fillColor=none;top=0;left=0;bottom=0;right=0;editable=1;overflow=hidden;labelBackgroundColor=none;strokeColor=#D0CEE2;fontColor=#1A1A1A;" parent="tcN-wxtSRkhTtf9mxSX--184" vertex="1">
          <mxGeometry width="30" height="30" as="geometry">
            <mxRectangle width="30" height="30" as="alternateBounds" />
          </mxGeometry>
        </mxCell>
        <mxCell id="tcN-wxtSRkhTtf9mxSX--186" value="Username" style="shape=partialRectangle;connectable=0;fillColor=none;top=0;left=0;bottom=0;right=0;align=left;spacingLeft=6;overflow=hidden;labelBackgroundColor=none;strokeColor=#D0CEE2;fontColor=#1A1A1A;" parent="tcN-wxtSRkhTtf9mxSX--184" vertex="1">
          <mxGeometry x="30" width="150" height="30" as="geometry">
            <mxRectangle width="150" height="30" as="alternateBounds" />
          </mxGeometry>
        </mxCell>
        <mxCell id="tcN-wxtSRkhTtf9mxSX--187" value="" style="shape=tableRow;horizontal=0;startSize=0;swimlaneHead=0;swimlaneBody=0;fillColor=none;collapsible=0;dropTarget=0;points=[[0,0.5],[1,0.5]];portConstraint=eastwest;top=0;left=0;right=0;bottom=0;labelBackgroundColor=none;strokeColor=#D0CEE2;fontColor=#1A1A1A;" parent="tcN-wxtSRkhTtf9mxSX--180" vertex="1">
          <mxGeometry y="95" width="180" height="30" as="geometry" />
        </mxCell>
        <mxCell id="tcN-wxtSRkhTtf9mxSX--188" value="" style="shape=partialRectangle;connectable=0;fillColor=none;top=0;left=0;bottom=0;right=0;editable=1;overflow=hidden;labelBackgroundColor=none;strokeColor=#D0CEE2;fontColor=#1A1A1A;" parent="tcN-wxtSRkhTtf9mxSX--187" vertex="1">
          <mxGeometry width="30" height="30" as="geometry">
            <mxRectangle width="30" height="30" as="alternateBounds" />
          </mxGeometry>
        </mxCell>
        <mxCell id="tcN-wxtSRkhTtf9mxSX--189" value="password" style="shape=partialRectangle;connectable=0;fillColor=none;top=0;left=0;bottom=0;right=0;align=left;spacingLeft=6;overflow=hidden;labelBackgroundColor=none;strokeColor=#D0CEE2;fontColor=#1A1A1A;" parent="tcN-wxtSRkhTtf9mxSX--187" vertex="1">
          <mxGeometry x="30" width="150" height="30" as="geometry">
            <mxRectangle width="150" height="30" as="alternateBounds" />
          </mxGeometry>
        </mxCell>
        <mxCell id="tcN-wxtSRkhTtf9mxSX--190" value="" style="shape=tableRow;horizontal=0;startSize=0;swimlaneHead=0;swimlaneBody=0;fillColor=none;collapsible=0;dropTarget=0;points=[[0,0.5],[1,0.5]];portConstraint=eastwest;top=0;left=0;right=0;bottom=0;labelBackgroundColor=none;strokeColor=#D0CEE2;fontColor=#1A1A1A;" parent="tcN-wxtSRkhTtf9mxSX--180" vertex="1">
          <mxGeometry y="125" width="180" height="30" as="geometry" />
        </mxCell>
        <mxCell id="tcN-wxtSRkhTtf9mxSX--191" value="" style="shape=partialRectangle;connectable=0;fillColor=none;top=0;left=0;bottom=0;right=0;editable=1;overflow=hidden;labelBackgroundColor=none;strokeColor=#D0CEE2;fontColor=#1A1A1A;" parent="tcN-wxtSRkhTtf9mxSX--190" vertex="1">
          <mxGeometry width="30" height="30" as="geometry">
            <mxRectangle width="30" height="30" as="alternateBounds" />
          </mxGeometry>
        </mxCell>
        <mxCell id="tcN-wxtSRkhTtf9mxSX--192" value="Email" style="shape=partialRectangle;connectable=0;fillColor=none;top=0;left=0;bottom=0;right=0;align=left;spacingLeft=6;overflow=hidden;labelBackgroundColor=none;strokeColor=#D0CEE2;fontColor=#1A1A1A;" parent="tcN-wxtSRkhTtf9mxSX--190" vertex="1">
          <mxGeometry x="30" width="150" height="30" as="geometry">
            <mxRectangle width="150" height="30" as="alternateBounds" />
          </mxGeometry>
        </mxCell>
        <mxCell id="tcN-wxtSRkhTtf9mxSX--193" value="" style="shape=tableRow;horizontal=0;startSize=0;swimlaneHead=0;swimlaneBody=0;fillColor=none;collapsible=0;dropTarget=0;points=[[0,0.5],[1,0.5]];portConstraint=eastwest;top=0;left=0;right=0;bottom=0;labelBackgroundColor=none;strokeColor=#D0CEE2;fontColor=#1A1A1A;" parent="tcN-wxtSRkhTtf9mxSX--180" vertex="1">
          <mxGeometry y="155" width="180" height="30" as="geometry" />
        </mxCell>
        <mxCell id="tcN-wxtSRkhTtf9mxSX--194" value="" style="shape=partialRectangle;connectable=0;fillColor=none;top=0;left=0;bottom=0;right=0;editable=1;overflow=hidden;labelBackgroundColor=none;strokeColor=#D0CEE2;fontColor=#1A1A1A;" parent="tcN-wxtSRkhTtf9mxSX--193" vertex="1">
          <mxGeometry width="30" height="30" as="geometry">
            <mxRectangle width="30" height="30" as="alternateBounds" />
          </mxGeometry>
        </mxCell>
        <mxCell id="tcN-wxtSRkhTtf9mxSX--195" value="Location" style="shape=partialRectangle;connectable=0;fillColor=none;top=0;left=0;bottom=0;right=0;align=left;spacingLeft=6;overflow=hidden;labelBackgroundColor=none;strokeColor=#D0CEE2;fontColor=#1A1A1A;" parent="tcN-wxtSRkhTtf9mxSX--193" vertex="1">
          <mxGeometry x="30" width="150" height="30" as="geometry">
            <mxRectangle width="150" height="30" as="alternateBounds" />
          </mxGeometry>
        </mxCell>
        <mxCell id="tcN-wxtSRkhTtf9mxSX--196" value="" style="shape=tableRow;horizontal=0;startSize=0;swimlaneHead=0;swimlaneBody=0;fillColor=none;collapsible=0;dropTarget=0;points=[[0,0.5],[1,0.5]];portConstraint=eastwest;top=0;left=0;right=0;bottom=0;labelBackgroundColor=none;strokeColor=#D0CEE2;fontColor=#1A1A1A;" parent="tcN-wxtSRkhTtf9mxSX--180" vertex="1">
          <mxGeometry y="185" width="180" height="35" as="geometry" />
        </mxCell>
        <mxCell id="tcN-wxtSRkhTtf9mxSX--197" value="" style="shape=partialRectangle;connectable=0;fillColor=none;top=0;left=0;bottom=0;right=0;editable=1;overflow=hidden;labelBackgroundColor=none;strokeColor=#D0CEE2;fontColor=#1A1A1A;" parent="tcN-wxtSRkhTtf9mxSX--196" vertex="1">
          <mxGeometry width="30" height="35" as="geometry">
            <mxRectangle width="30" height="35" as="alternateBounds" />
          </mxGeometry>
        </mxCell>
        <mxCell id="tcN-wxtSRkhTtf9mxSX--198" value="ِDate of Birth" style="shape=partialRectangle;connectable=0;fillColor=none;top=0;left=0;bottom=0;right=0;align=left;spacingLeft=6;overflow=hidden;labelBackgroundColor=none;strokeColor=#D0CEE2;fontColor=#1A1A1A;" parent="tcN-wxtSRkhTtf9mxSX--196" vertex="1">
          <mxGeometry x="30" width="150" height="35" as="geometry">
            <mxRectangle width="150" height="35" as="alternateBounds" />
          </mxGeometry>
        </mxCell>
        <mxCell id="tcN-wxtSRkhTtf9mxSX--199" value="" style="endArrow=none;html=1;rounded=0;entryX=0;entryY=0.5;entryDx=0;entryDy=0;exitX=1;exitY=0.5;exitDx=0;exitDy=0;labelBackgroundColor=none;strokeColor=#736CA8;fontColor=default;" parent="1" source="tcN-wxtSRkhTtf9mxSX--172" target="tcN-wxtSRkhTtf9mxSX--147" edge="1">
          <mxGeometry relative="1" as="geometry">
            <mxPoint x="-710" y="10" as="sourcePoint" />
            <mxPoint x="-550" y="10" as="targetPoint" />
          </mxGeometry>
        </mxCell>
        <mxCell id="tcN-wxtSRkhTtf9mxSX--234" value="" style="fontSize=12;html=1;endArrow=ERzeroToMany;endFill=1;rounded=0;elbow=vertical;exitX=0.5;exitY=1;exitDx=0;exitDy=0;labelBackgroundColor=none;strokeColor=#736CA8;fontColor=default;entryX=0.053;entryY=0.005;entryDx=0;entryDy=0;entryPerimeter=0;" parent="1" source="tcN-wxtSRkhTtf9mxSX--162" target="tcN-wxtSRkhTtf9mxSX--21" edge="1">
          <mxGeometry width="100" height="100" relative="1" as="geometry">
            <mxPoint x="-160" y="480" as="sourcePoint" />
            <mxPoint x="-190" y="620" as="targetPoint" />
            <Array as="points" />
          </mxGeometry>
        </mxCell>
        <mxCell id="tcN-wxtSRkhTtf9mxSX--236" value="" style="fontSize=12;html=1;endArrow=ERoneToMany;rounded=0;edgeStyle=orthogonalEdgeStyle;labelBackgroundColor=none;strokeColor=#736CA8;fontColor=default;exitX=0.5;exitY=1;exitDx=0;exitDy=0;" parent="1" source="vrhh-99T-nDQOH6rCTCm-16" edge="1">
          <mxGeometry width="100" height="100" relative="1" as="geometry">
            <mxPoint x="-387.5" y="590" as="sourcePoint" />
            <mxPoint x="-450" y="640" as="targetPoint" />
          </mxGeometry>
        </mxCell>
        <mxCell id="tcN-wxtSRkhTtf9mxSX--238" value="" style="fontSize=12;html=1;endArrow=ERoneToMany;rounded=0;edgeStyle=orthogonalEdgeStyle;labelBackgroundColor=none;strokeColor=#736CA8;fontColor=default;exitX=0.5;exitY=1;exitDx=0;exitDy=0;" parent="1" source="vrhh-99T-nDQOH6rCTCm-15" edge="1">
          <mxGeometry width="100" height="100" relative="1" as="geometry">
            <mxPoint x="-247.49999999999977" y="591" as="sourcePoint" />
            <mxPoint x="-210" y="690" as="targetPoint" />
            <Array as="points">
              <mxPoint x="-247" y="580" />
              <mxPoint x="-247" y="690" />
            </Array>
          </mxGeometry>
        </mxCell>
        <mxCell id="tcN-wxtSRkhTtf9mxSX--240" value="Play" style="shape=rhombus;perimeter=rhombusPerimeter;whiteSpace=wrap;html=1;align=center;labelBackgroundColor=none;fillColor=#e1d5e7;strokeColor=#9673a6;" parent="1" vertex="1">
          <mxGeometry x="460" y="261.5" width="70" height="30" as="geometry" />
        </mxCell>
        <mxCell id="tcN-wxtSRkhTtf9mxSX--242" value="" style="edgeStyle=elbowEdgeStyle;fontSize=12;html=1;endArrow=ERzeroToMany;endFill=1;rounded=0;elbow=vertical;exitX=0.5;exitY=1;exitDx=0;exitDy=0;labelBackgroundColor=none;strokeColor=#736CA8;fontColor=default;" parent="1" source="tcN-wxtSRkhTtf9mxSX--240" edge="1">
          <mxGeometry width="100" height="100" relative="1" as="geometry">
            <mxPoint x="-1060" y="840" as="sourcePoint" />
            <mxPoint x="-30" y="770" as="targetPoint" />
            <Array as="points">
              <mxPoint x="270" y="770" />
            </Array>
          </mxGeometry>
        </mxCell>
        <mxCell id="tcN-wxtSRkhTtf9mxSX--244" value="Comment" style="shape=rhombus;perimeter=rhombusPerimeter;whiteSpace=wrap;html=1;align=center;labelBackgroundColor=none;fillColor=#e1d5e7;strokeColor=#9673a6;" parent="1" vertex="1">
          <mxGeometry x="-650" y="530" width="80" height="40" as="geometry" />
        </mxCell>
        <mxCell id="tcN-wxtSRkhTtf9mxSX--245" value="Comment" style="shape=rhombus;perimeter=rhombusPerimeter;whiteSpace=wrap;html=1;align=center;labelBackgroundColor=none;fillColor=#e1d5e7;strokeColor=#9673a6;" parent="1" vertex="1">
          <mxGeometry x="-180" y="509" width="80" height="41" as="geometry" />
        </mxCell>
        <mxCell id="tcN-wxtSRkhTtf9mxSX--246" value="Comment" style="shape=rhombus;perimeter=rhombusPerimeter;whiteSpace=wrap;html=1;align=center;labelBackgroundColor=none;fillColor=#e1d5e7;strokeColor=#9673a6;" parent="1" vertex="1">
          <mxGeometry x="-225" y="150" width="76.25" height="40" as="geometry" />
        </mxCell>
        <mxCell id="tcN-wxtSRkhTtf9mxSX--248" value="" style="edgeStyle=orthogonalEdgeStyle;fontSize=12;html=1;endArrow=ERzeroToMany;endFill=1;rounded=0;exitX=1;exitY=0.5;exitDx=0;exitDy=0;labelBackgroundColor=none;strokeColor=#736CA8;fontColor=default;" parent="1" source="tcN-wxtSRkhTtf9mxSX--246" edge="1">
          <mxGeometry width="100" height="100" relative="1" as="geometry">
            <mxPoint x="-250" y="540" as="sourcePoint" />
            <mxPoint x="-70" y="180" as="targetPoint" />
          </mxGeometry>
        </mxCell>
        <mxCell id="tcN-wxtSRkhTtf9mxSX--249" value="" style="edgeStyle=elbowEdgeStyle;fontSize=12;html=1;endArrow=ERzeroToMany;endFill=1;rounded=0;entryX=1.001;entryY=0.254;entryDx=0;entryDy=0;exitX=0;exitY=0.5;exitDx=0;exitDy=0;entryPerimeter=0;labelBackgroundColor=none;strokeColor=#736CA8;fontColor=default;" parent="1" source="tcN-wxtSRkhTtf9mxSX--246" target="tcN-wxtSRkhTtf9mxSX--114" edge="1">
          <mxGeometry width="100" height="100" relative="1" as="geometry">
            <mxPoint x="-190" y="270" as="sourcePoint" />
            <mxPoint x="-300" y="170" as="targetPoint" />
            <Array as="points">
              <mxPoint x="-310" y="140" />
            </Array>
          </mxGeometry>
        </mxCell>
        <mxCell id="tcN-wxtSRkhTtf9mxSX--250" value="" style="edgeStyle=orthogonalEdgeStyle;fontSize=12;html=1;endArrow=ERzeroToMany;endFill=1;rounded=0;entryX=0.346;entryY=1.013;entryDx=0;entryDy=0;entryPerimeter=0;exitX=0.5;exitY=0;exitDx=0;exitDy=0;labelBackgroundColor=none;strokeColor=#736CA8;fontColor=default;" parent="1" source="tcN-wxtSRkhTtf9mxSX--244" target="tcN-wxtSRkhTtf9mxSX--114" edge="1">
          <mxGeometry width="100" height="100" relative="1" as="geometry">
            <mxPoint x="-340" y="500" as="sourcePoint" />
            <mxPoint x="-240" y="400" as="targetPoint" />
            <Array as="points">
              <mxPoint x="-640" y="280" />
              <mxPoint x="-450" y="280" />
            </Array>
          </mxGeometry>
        </mxCell>
        <mxCell id="tcN-wxtSRkhTtf9mxSX--251" value="" style="fontSize=12;html=1;endArrow=ERzeroToMany;endFill=1;rounded=0;exitX=0.5;exitY=1;exitDx=0;exitDy=0;labelBackgroundColor=none;strokeColor=#736CA8;fontColor=default;" parent="1" source="tcN-wxtSRkhTtf9mxSX--244" edge="1">
          <mxGeometry width="100" height="100" relative="1" as="geometry">
            <mxPoint x="-630" y="540" as="sourcePoint" />
            <mxPoint x="-610" y="640" as="targetPoint" />
          </mxGeometry>
        </mxCell>
        <mxCell id="tcN-wxtSRkhTtf9mxSX--252" value="" style="fontSize=12;html=1;endArrow=ERzeroToMany;endFill=1;rounded=0;exitX=0.5;exitY=1;exitDx=0;exitDy=0;labelBackgroundColor=none;strokeColor=#736CA8;fontColor=default;" parent="1" source="tcN-wxtSRkhTtf9mxSX--245" edge="1">
          <mxGeometry width="100" height="100" relative="1" as="geometry">
            <mxPoint x="-460" y="450" as="sourcePoint" />
            <mxPoint x="-140" y="620" as="targetPoint" />
          </mxGeometry>
        </mxCell>
        <mxCell id="tcN-wxtSRkhTtf9mxSX--254" value="" style="edgeStyle=orthogonalEdgeStyle;fontSize=12;html=1;endArrow=ERzeroToMany;endFill=1;rounded=0;exitX=0.5;exitY=0;exitDx=0;exitDy=0;entryX=0.781;entryY=1;entryDx=0;entryDy=0;entryPerimeter=0;labelBackgroundColor=none;strokeColor=#736CA8;fontColor=default;" parent="1" source="tcN-wxtSRkhTtf9mxSX--245" target="tcN-wxtSRkhTtf9mxSX--114" edge="1">
          <mxGeometry width="100" height="100" relative="1" as="geometry">
            <mxPoint x="-520" y="400" as="sourcePoint" />
            <mxPoint x="-360" y="240" as="targetPoint" />
            <Array as="points">
              <mxPoint x="-140" y="456" />
              <mxPoint x="-200" y="456" />
              <mxPoint x="-200" y="320" />
              <mxPoint x="-380" y="320" />
            </Array>
          </mxGeometry>
        </mxCell>
        <mxCell id="tcN-wxtSRkhTtf9mxSX--255" value="Like" style="shape=rhombus;perimeter=rhombusPerimeter;whiteSpace=wrap;html=1;align=center;labelBackgroundColor=none;fillColor=#e1d5e7;strokeColor=#9673a6;" parent="1" vertex="1">
          <mxGeometry x="-720" y="437" width="70" height="40" as="geometry" />
        </mxCell>
        <mxCell id="tcN-wxtSRkhTtf9mxSX--256" value="Like" style="shape=rhombus;perimeter=rhombusPerimeter;whiteSpace=wrap;html=1;align=center;labelBackgroundColor=none;fillColor=#e1d5e7;strokeColor=#9673a6;" parent="1" vertex="1">
          <mxGeometry x="-200" y="90" width="70" height="30" as="geometry" />
        </mxCell>
        <mxCell id="tcN-wxtSRkhTtf9mxSX--257" value="Like" style="shape=rhombus;perimeter=rhombusPerimeter;whiteSpace=wrap;html=1;align=center;labelBackgroundColor=none;fillColor=#e1d5e7;strokeColor=#9673a6;" parent="1" vertex="1">
          <mxGeometry x="-120.00000000000001" y="410" width="70" height="33.72" as="geometry" />
        </mxCell>
        <mxCell id="tcN-wxtSRkhTtf9mxSX--264" value="" style="edgeStyle=elbowEdgeStyle;fontSize=12;html=1;endArrow=ERzeroToMany;endFill=1;rounded=0;exitX=0.5;exitY=1;exitDx=0;exitDy=0;labelBackgroundColor=none;strokeColor=#736CA8;fontColor=default;" parent="1" source="tcN-wxtSRkhTtf9mxSX--255" edge="1">
          <mxGeometry width="100" height="100" relative="1" as="geometry">
            <mxPoint x="-500" y="570" as="sourcePoint" />
            <mxPoint x="-620" y="690" as="targetPoint" />
            <Array as="points">
              <mxPoint x="-685" y="590" />
            </Array>
          </mxGeometry>
        </mxCell>
        <mxCell id="tcN-wxtSRkhTtf9mxSX--265" value="" style="edgeStyle=elbowEdgeStyle;fontSize=12;html=1;endArrow=ERzeroToMany;endFill=1;rounded=0;exitX=0.5;exitY=0;exitDx=0;exitDy=0;entryX=0.008;entryY=0.617;entryDx=0;entryDy=0;entryPerimeter=0;labelBackgroundColor=none;strokeColor=#736CA8;fontColor=default;" parent="1" edge="1">
          <mxGeometry width="100" height="100" relative="1" as="geometry">
            <mxPoint x="-686.28" y="437" as="sourcePoint" />
            <mxPoint x="-504.9999999999998" y="163.35799999999995" as="targetPoint" />
            <Array as="points">
              <mxPoint x="-690" y="300" />
            </Array>
          </mxGeometry>
        </mxCell>
        <mxCell id="tcN-wxtSRkhTtf9mxSX--266" value="" style="edgeStyle=entityRelationEdgeStyle;fontSize=12;html=1;endArrow=ERzeroToMany;endFill=1;rounded=0;exitX=1;exitY=0.5;exitDx=0;exitDy=0;labelBackgroundColor=none;strokeColor=#736CA8;fontColor=default;" parent="1" source="tcN-wxtSRkhTtf9mxSX--256" edge="1">
          <mxGeometry width="100" height="100" relative="1" as="geometry">
            <mxPoint x="-500" y="300" as="sourcePoint" />
            <mxPoint x="-70" y="160" as="targetPoint" />
          </mxGeometry>
        </mxCell>
        <mxCell id="tcN-wxtSRkhTtf9mxSX--267" value="" style="edgeStyle=orthogonalEdgeStyle;fontSize=12;html=1;endArrow=ERzeroToMany;endFill=1;rounded=0;entryX=1.01;entryY=0.173;entryDx=0;entryDy=0;entryPerimeter=0;exitX=0;exitY=0.5;exitDx=0;exitDy=0;labelBackgroundColor=none;strokeColor=#736CA8;fontColor=default;" parent="1" source="tcN-wxtSRkhTtf9mxSX--256" target="tcN-wxtSRkhTtf9mxSX--114" edge="1">
          <mxGeometry width="100" height="100" relative="1" as="geometry">
            <mxPoint x="-500" y="300" as="sourcePoint" />
            <mxPoint x="-330" y="100" as="targetPoint" />
            <Array as="points">
              <mxPoint x="-200" y="130" />
              <mxPoint x="-300" y="130" />
              <mxPoint x="-300" y="86" />
            </Array>
          </mxGeometry>
        </mxCell>
        <mxCell id="tcN-wxtSRkhTtf9mxSX--268" value="" style="fontSize=12;html=1;endArrow=ERzeroToMany;endFill=1;rounded=0;exitX=1;exitY=0.5;exitDx=0;exitDy=0;labelBackgroundColor=none;strokeColor=#736CA8;fontColor=default;" parent="1" source="tcN-wxtSRkhTtf9mxSX--152" edge="1">
          <mxGeometry width="100" height="100" relative="1" as="geometry">
            <mxPoint x="-500" y="300" as="sourcePoint" />
            <mxPoint x="-70" y="70" as="targetPoint" />
          </mxGeometry>
        </mxCell>
        <mxCell id="tcN-wxtSRkhTtf9mxSX--269" value="" style="edgeStyle=orthogonalEdgeStyle;fontSize=12;html=1;endArrow=ERzeroToMany;endFill=1;rounded=0;exitX=0;exitY=0.5;exitDx=0;exitDy=0;entryX=0.844;entryY=1;entryDx=0;entryDy=0;entryPerimeter=0;labelBackgroundColor=none;strokeColor=#736CA8;fontColor=default;" parent="1" source="tcN-wxtSRkhTtf9mxSX--257" target="tcN-wxtSRkhTtf9mxSX--114" edge="1">
          <mxGeometry width="100" height="100" relative="1" as="geometry">
            <mxPoint x="-500" y="480" as="sourcePoint" />
            <mxPoint x="-350" y="240" as="targetPoint" />
            <Array as="points">
              <mxPoint x="-190" y="427" />
              <mxPoint x="-190" y="310" />
              <mxPoint x="-370" y="310" />
            </Array>
          </mxGeometry>
        </mxCell>
        <mxCell id="tcN-wxtSRkhTtf9mxSX--272" value="" style="edgeStyle=orthogonalEdgeStyle;fontSize=12;html=1;endArrow=ERzeroToMany;endFill=1;rounded=0;labelBackgroundColor=none;strokeColor=#736CA8;fontColor=default;" parent="1" source="tcN-wxtSRkhTtf9mxSX--257" edge="1">
          <mxGeometry width="100" height="100" relative="1" as="geometry">
            <mxPoint x="-500" y="550" as="sourcePoint" />
            <mxPoint x="-80" y="620" as="targetPoint" />
            <Array as="points">
              <mxPoint x="-90" y="528" />
              <mxPoint x="-80" y="528" />
            </Array>
          </mxGeometry>
        </mxCell>
        <mxCell id="tcN-wxtSRkhTtf9mxSX--281" value="Get" style="shape=rhombus;perimeter=rhombusPerimeter;whiteSpace=wrap;html=1;align=center;labelBackgroundColor=none;fillColor=#e1d5e7;strokeColor=#9673a6;" parent="1" vertex="1">
          <mxGeometry x="-60" y="363.28" width="79" height="40" as="geometry" />
        </mxCell>
        <mxCell id="tcN-wxtSRkhTtf9mxSX--285" value="" style="fontSize=12;html=1;endArrow=ERzeroToMany;endFill=1;rounded=0;entryX=0.004;entryY=0.114;entryDx=0;entryDy=0;exitX=1;exitY=0.5;exitDx=0;exitDy=0;entryPerimeter=0;labelBackgroundColor=none;strokeColor=#736CA8;fontColor=default;" parent="1" source="tcN-wxtSRkhTtf9mxSX--281" target="tcN-wxtSRkhTtf9mxSX--96" edge="1">
          <mxGeometry width="100" height="100" relative="1" as="geometry">
            <mxPoint x="-270" y="519" as="sourcePoint" />
            <mxPoint x="-170" y="419" as="targetPoint" />
          </mxGeometry>
        </mxCell>
        <mxCell id="tcN-wxtSRkhTtf9mxSX--286" value="" style="edgeStyle=orthogonalEdgeStyle;fontSize=12;html=1;endArrow=ERzeroToOne;endFill=1;rounded=0;entryX=0.915;entryY=1.009;entryDx=0;entryDy=0;entryPerimeter=0;labelBackgroundColor=none;strokeColor=#736CA8;fontColor=default;" parent="1" source="tcN-wxtSRkhTtf9mxSX--281" target="tcN-wxtSRkhTtf9mxSX--114" edge="1">
          <mxGeometry width="100" height="100" relative="1" as="geometry">
            <mxPoint x="130" y="510" as="sourcePoint" />
            <mxPoint x="230" y="410" as="targetPoint" />
            <Array as="points">
              <mxPoint x="-160" y="383" />
              <mxPoint x="-160" y="290" />
              <mxPoint x="-359" y="290" />
            </Array>
          </mxGeometry>
        </mxCell>
        <mxCell id="tcN-wxtSRkhTtf9mxSX--287" value="Manage" style="shape=rhombus;perimeter=rhombusPerimeter;whiteSpace=wrap;html=1;align=center;strokeColor=#9673a6;labelBackgroundColor=none;fillColor=#e1d5e7;" parent="1" vertex="1">
          <mxGeometry x="-478.75" y="-130.5" width="60" height="35" as="geometry" />
        </mxCell>
        <mxCell id="tcN-wxtSRkhTtf9mxSX--289" value="" style="edgeStyle=orthogonalEdgeStyle;fontSize=12;html=1;endArrow=ERmandOne;rounded=0;exitX=0.5;exitY=0;exitDx=0;exitDy=0;entryX=0.333;entryY=1.167;entryDx=0;entryDy=0;entryPerimeter=0;labelBackgroundColor=none;strokeColor=#736CA8;fontColor=default;" parent="1" source="tcN-wxtSRkhTtf9mxSX--287" target="tcN-wxtSRkhTtf9mxSX--80" edge="1">
          <mxGeometry width="100" height="100" relative="1" as="geometry">
            <mxPoint x="-350" y="70" as="sourcePoint" />
            <mxPoint x="20" y="-210" as="targetPoint" />
            <Array as="points">
              <mxPoint x="-449" y="-180" />
              <mxPoint x="20" y="-180" />
            </Array>
          </mxGeometry>
        </mxCell>
        <mxCell id="tcN-wxtSRkhTtf9mxSX--290" value="" style="fontSize=12;html=1;endArrow=ERmandOne;rounded=0;entryX=0.344;entryY=0;entryDx=0;entryDy=0;exitX=0.5;exitY=1;exitDx=0;exitDy=0;entryPerimeter=0;labelBackgroundColor=none;strokeColor=#736CA8;fontColor=default;" parent="1" source="tcN-wxtSRkhTtf9mxSX--287" target="tcN-wxtSRkhTtf9mxSX--113" edge="1">
          <mxGeometry width="100" height="100" relative="1" as="geometry">
            <mxPoint x="-350" y="70" as="sourcePoint" />
            <mxPoint x="-250" y="-30" as="targetPoint" />
          </mxGeometry>
        </mxCell>
        <mxCell id="tcN-wxtSRkhTtf9mxSX--292" value="" style="edgeStyle=orthogonalEdgeStyle;fontSize=12;html=1;endArrow=ERzeroToMany;endFill=1;rounded=0;exitX=0.5;exitY=1;exitDx=0;exitDy=0;labelBackgroundColor=none;strokeColor=#736CA8;fontColor=default;" parent="1" source="tcN-wxtSRkhTtf9mxSX--298" edge="1">
          <mxGeometry width="100" height="100" relative="1" as="geometry">
            <mxPoint x="-447.4999999999998" y="570.0000000000002" as="sourcePoint" />
            <mxPoint x="-520" y="640" as="targetPoint" />
            <Array as="points">
              <mxPoint x="-459" y="600" />
              <mxPoint x="-520" y="600" />
            </Array>
          </mxGeometry>
        </mxCell>
        <mxCell id="tcN-wxtSRkhTtf9mxSX--293" value="" style="edgeStyle=orthogonalEdgeStyle;fontSize=12;html=1;endArrow=ERmandOne;rounded=0;exitX=1;exitY=0.5;exitDx=0;exitDy=0;labelBackgroundColor=none;strokeColor=#736CA8;fontColor=default;" parent="1" target="tcN-wxtSRkhTtf9mxSX--120" edge="1">
          <mxGeometry width="100" height="100" relative="1" as="geometry">
            <mxPoint x="-424.9999999999998" y="550.0000000000002" as="sourcePoint" />
            <mxPoint x="-250" y="630" as="targetPoint" />
            <Array as="points">
              <mxPoint x="-420" y="550" />
              <mxPoint x="-420" y="422" />
            </Array>
          </mxGeometry>
        </mxCell>
        <mxCell id="tcN-wxtSRkhTtf9mxSX--294" value="Add/Delete" style="shape=rhombus;perimeter=rhombusPerimeter;whiteSpace=wrap;html=1;align=center;labelBackgroundColor=none;fillColor=#e1d5e7;strokeColor=#9673a6;" parent="1" vertex="1">
          <mxGeometry x="-340" y="591" width="81.25" height="30" as="geometry" />
        </mxCell>
        <mxCell id="tcN-wxtSRkhTtf9mxSX--296" value="" style="edgeStyle=orthogonalEdgeStyle;fontSize=12;html=1;endArrow=ERzeroToMany;endFill=1;rounded=0;exitX=0.5;exitY=1;exitDx=0;exitDy=0;labelBackgroundColor=none;strokeColor=#736CA8;fontColor=default;" parent="1" source="tcN-wxtSRkhTtf9mxSX--294" edge="1">
          <mxGeometry width="100" height="100" relative="1" as="geometry">
            <mxPoint x="-300" y="630" as="sourcePoint" />
            <mxPoint x="-210" y="710" as="targetPoint" />
            <Array as="points">
              <mxPoint x="-299" y="710" />
            </Array>
          </mxGeometry>
        </mxCell>
        <mxCell id="tcN-wxtSRkhTtf9mxSX--297" value="" style="fontSize=12;html=1;endArrow=ERmandOne;rounded=0;exitX=0.5;exitY=0;exitDx=0;exitDy=0;entryX=0.607;entryY=1.078;entryDx=0;entryDy=0;entryPerimeter=0;labelBackgroundColor=none;strokeColor=#736CA8;fontColor=default;" parent="1" source="tcN-wxtSRkhTtf9mxSX--294" target="tcN-wxtSRkhTtf9mxSX--120" edge="1">
          <mxGeometry width="100" height="100" relative="1" as="geometry">
            <mxPoint x="-375" y="560" as="sourcePoint" />
            <mxPoint x="-377" y="447" as="targetPoint" />
          </mxGeometry>
        </mxCell>
        <mxCell id="tcN-wxtSRkhTtf9mxSX--298" value="Add/Delete" style="shape=rhombus;perimeter=rhombusPerimeter;whiteSpace=wrap;html=1;align=center;labelBackgroundColor=none;fillColor=#e1d5e7;strokeColor=#9673a6;" parent="1" vertex="1">
          <mxGeometry x="-500" y="535" width="81.25" height="30" as="geometry" />
        </mxCell>
        <mxCell id="tcN-wxtSRkhTtf9mxSX--304" value="Change password" style="shape=rhombus;perimeter=rhombusPerimeter;whiteSpace=wrap;html=1;align=center;labelBackgroundColor=none;fillColor=#d0cee2;strokeColor=#56517e;" parent="1" vertex="1">
          <mxGeometry x="-605" y="-300" width="120" height="40" as="geometry" />
        </mxCell>
        <mxCell id="tcN-wxtSRkhTtf9mxSX--305" value="sign in" style="shape=rhombus;perimeter=rhombusPerimeter;whiteSpace=wrap;html=1;align=center;labelBackgroundColor=none;fillColor=#d0cee2;strokeColor=#56517e;" parent="1" vertex="1">
          <mxGeometry x="-572.5" y="-350" width="55" height="40" as="geometry" />
        </mxCell>
        <mxCell id="tcN-wxtSRkhTtf9mxSX--306" value="Sign up" style="shape=rhombus;perimeter=rhombusPerimeter;whiteSpace=wrap;html=1;align=center;labelBackgroundColor=none;fillColor=#d0cee2;strokeColor=#56517e;" parent="1" vertex="1">
          <mxGeometry x="-570" y="-400" width="50" height="40" as="geometry" />
        </mxCell>
        <mxCell id="tcN-wxtSRkhTtf9mxSX--307" value="Find favorite" style="shape=rhombus;perimeter=rhombusPerimeter;whiteSpace=wrap;html=1;align=center;labelBackgroundColor=none;fillColor=#d0cee2;strokeColor=#56517e;" parent="1" vertex="1">
          <mxGeometry x="-665" y="-190" width="90" height="30" as="geometry" />
        </mxCell>
        <mxCell id="tcN-wxtSRkhTtf9mxSX--308" value="Recemend" style="shape=rhombus;perimeter=rhombusPerimeter;whiteSpace=wrap;html=1;align=center;labelBackgroundColor=none;fillColor=#d0cee2;strokeColor=#56517e;" parent="1" vertex="1">
          <mxGeometry x="-725" y="-135" width="70" height="44" as="geometry" />
        </mxCell>
        <mxCell id="tcN-wxtSRkhTtf9mxSX--309" value="" style="edgeStyle=entityRelationEdgeStyle;fontSize=12;html=1;endArrow=ERmandOne;rounded=0;entryX=1;entryY=0;entryDx=0;entryDy=0;exitX=0;exitY=0.5;exitDx=0;exitDy=0;labelBackgroundColor=none;strokeColor=#736CA8;fontColor=default;" parent="1" source="tcN-wxtSRkhTtf9mxSX--306" target="tcN-wxtSRkhTtf9mxSX--1" edge="1">
          <mxGeometry width="100" height="100" relative="1" as="geometry">
            <mxPoint x="-640" y="-200" as="sourcePoint" />
            <mxPoint x="-510" y="-240" as="targetPoint" />
          </mxGeometry>
        </mxCell>
        <mxCell id="tcN-wxtSRkhTtf9mxSX--310" value="" style="edgeStyle=entityRelationEdgeStyle;fontSize=12;html=1;endArrow=ERmandOne;rounded=0;exitX=1;exitY=0.5;exitDx=0;exitDy=0;entryX=-0.01;entryY=0.016;entryDx=0;entryDy=0;entryPerimeter=0;labelBackgroundColor=none;strokeColor=#736CA8;fontColor=default;" parent="1" source="tcN-wxtSRkhTtf9mxSX--306" target="tcN-wxtSRkhTtf9mxSX--181" edge="1">
          <mxGeometry width="100" height="100" relative="1" as="geometry">
            <mxPoint x="-610" y="-140" as="sourcePoint" />
            <mxPoint x="-510" y="-240" as="targetPoint" />
          </mxGeometry>
        </mxCell>
        <mxCell id="tcN-wxtSRkhTtf9mxSX--311" value="" style="edgeStyle=entityRelationEdgeStyle;fontSize=12;html=1;endArrow=ERmandOne;rounded=0;entryX=-0.005;entryY=1.011;entryDx=0;entryDy=0;entryPerimeter=0;labelBackgroundColor=none;strokeColor=#736CA8;fontColor=default;" parent="1" source="tcN-wxtSRkhTtf9mxSX--305" target="tcN-wxtSRkhTtf9mxSX--181" edge="1">
          <mxGeometry width="100" height="100" relative="1" as="geometry">
            <mxPoint x="-430" y="-180" as="sourcePoint" />
            <mxPoint x="-330" y="-280" as="targetPoint" />
          </mxGeometry>
        </mxCell>
        <mxCell id="tcN-wxtSRkhTtf9mxSX--314" value="" style="edgeStyle=entityRelationEdgeStyle;fontSize=12;html=1;endArrow=ERmandOne;rounded=0;entryX=1;entryY=0.25;entryDx=0;entryDy=0;exitX=0;exitY=0.5;exitDx=0;exitDy=0;labelBackgroundColor=none;strokeColor=#736CA8;fontColor=default;" parent="1" source="tcN-wxtSRkhTtf9mxSX--305" target="tcN-wxtSRkhTtf9mxSX--1" edge="1">
          <mxGeometry width="100" height="100" relative="1" as="geometry">
            <mxPoint x="-430" y="-70" as="sourcePoint" />
            <mxPoint x="-330" y="-170" as="targetPoint" />
          </mxGeometry>
        </mxCell>
        <mxCell id="tcN-wxtSRkhTtf9mxSX--315" value="" style="edgeStyle=entityRelationEdgeStyle;fontSize=12;html=1;endArrow=ERmandOne;rounded=0;entryX=0.005;entryY=0.092;entryDx=0;entryDy=0;entryPerimeter=0;exitX=1;exitY=0.5;exitDx=0;exitDy=0;labelBackgroundColor=none;strokeColor=#736CA8;fontColor=default;" parent="1" source="tcN-wxtSRkhTtf9mxSX--304" target="tcN-wxtSRkhTtf9mxSX--187" edge="1">
          <mxGeometry width="100" height="100" relative="1" as="geometry">
            <mxPoint x="-480" y="-280" as="sourcePoint" />
            <mxPoint x="-330" y="-170" as="targetPoint" />
          </mxGeometry>
        </mxCell>
        <mxCell id="tcN-wxtSRkhTtf9mxSX--316" value="" style="edgeStyle=entityRelationEdgeStyle;fontSize=12;html=1;endArrow=ERmandOne;rounded=0;entryX=1;entryY=1;entryDx=0;entryDy=0;exitX=0;exitY=0.5;exitDx=0;exitDy=0;labelBackgroundColor=none;strokeColor=#736CA8;fontColor=default;" parent="1" source="tcN-wxtSRkhTtf9mxSX--304" target="tcN-wxtSRkhTtf9mxSX--1" edge="1">
          <mxGeometry width="100" height="100" relative="1" as="geometry">
            <mxPoint x="-430" y="-70" as="sourcePoint" />
            <mxPoint x="-330" y="-170" as="targetPoint" />
          </mxGeometry>
        </mxCell>
        <mxCell id="tcN-wxtSRkhTtf9mxSX--317" value="" style="edgeStyle=orthogonalEdgeStyle;fontSize=12;html=1;endArrow=ERmandOne;rounded=0;exitX=0.5;exitY=0;exitDx=0;exitDy=0;entryX=0.8;entryY=1;entryDx=0;entryDy=0;entryPerimeter=0;labelBackgroundColor=none;strokeColor=#736CA8;fontColor=default;" parent="1" source="tcN-wxtSRkhTtf9mxSX--307" target="tcN-wxtSRkhTtf9mxSX--1" edge="1">
          <mxGeometry width="100" height="100" relative="1" as="geometry">
            <mxPoint x="-430" y="-70" as="sourcePoint" />
            <mxPoint x="-330" y="-170" as="targetPoint" />
          </mxGeometry>
        </mxCell>
        <mxCell id="tcN-wxtSRkhTtf9mxSX--319" value="" style="edgeStyle=orthogonalEdgeStyle;fontSize=12;html=1;endArrow=ERmandOne;rounded=0;exitX=0.5;exitY=1;exitDx=0;exitDy=0;entryX=0.25;entryY=0;entryDx=0;entryDy=0;labelBackgroundColor=none;strokeColor=#736CA8;fontColor=default;" parent="1" source="tcN-wxtSRkhTtf9mxSX--307" target="tcN-wxtSRkhTtf9mxSX--113" edge="1">
          <mxGeometry width="100" height="100" relative="1" as="geometry">
            <mxPoint x="-430" y="-70" as="sourcePoint" />
            <mxPoint x="-330" y="-170" as="targetPoint" />
            <Array as="points">
              <mxPoint x="-510" y="-150" />
              <mxPoint x="-510" y="-60" />
              <mxPoint x="-465" y="-60" />
            </Array>
          </mxGeometry>
        </mxCell>
        <mxCell id="tcN-wxtSRkhTtf9mxSX--320" value="" style="edgeStyle=orthogonalEdgeStyle;fontSize=12;html=1;endArrow=ERmandOne;rounded=0;entryX=0.037;entryY=-0.018;entryDx=0;entryDy=0;entryPerimeter=0;labelBackgroundColor=none;strokeColor=#736CA8;fontColor=default;" parent="1" source="tcN-wxtSRkhTtf9mxSX--308" target="tcN-wxtSRkhTtf9mxSX--113" edge="1">
          <mxGeometry width="100" height="100" relative="1" as="geometry">
            <mxPoint x="-430" y="-70" as="sourcePoint" />
            <mxPoint x="-330" y="-170" as="targetPoint" />
            <Array as="points">
              <mxPoint x="-520" y="-113" />
              <mxPoint x="-520" y="-30" />
              <mxPoint x="-499" y="-30" />
            </Array>
          </mxGeometry>
        </mxCell>
        <mxCell id="tcN-wxtSRkhTtf9mxSX--321" value="" style="edgeStyle=orthogonalEdgeStyle;fontSize=12;html=1;endArrow=ERmandOne;rounded=0;entryX=0.25;entryY=1;entryDx=0;entryDy=0;exitX=0.5;exitY=0;exitDx=0;exitDy=0;labelBackgroundColor=none;strokeColor=#736CA8;fontColor=default;" parent="1" source="tcN-wxtSRkhTtf9mxSX--308" target="tcN-wxtSRkhTtf9mxSX--1" edge="1">
          <mxGeometry width="100" height="100" relative="1" as="geometry">
            <mxPoint x="-430" y="-70" as="sourcePoint" />
            <mxPoint x="-330" y="-170" as="targetPoint" />
          </mxGeometry>
        </mxCell>
        <mxCell id="tcN-wxtSRkhTtf9mxSX--322" value="" style="edgeStyle=orthogonalEdgeStyle;fontSize=12;html=1;endArrow=ERzeroToMany;endFill=1;rounded=0;strokeColor=#736CA8;fontColor=default;exitX=0.955;exitY=0.53;exitDx=0;exitDy=0;exitPerimeter=0;labelBackgroundColor=none;" parent="1" source="tcN-wxtSRkhTtf9mxSX--328" target="tcN-wxtSRkhTtf9mxSX--54" edge="1">
          <mxGeometry width="100" height="100" relative="1" as="geometry">
            <mxPoint x="80" y="280" as="sourcePoint" />
            <mxPoint x="120" y="260" as="targetPoint" />
            <Array as="points">
              <mxPoint x="85" y="267" />
              <mxPoint x="160" y="267" />
              <mxPoint x="160" y="144" />
            </Array>
          </mxGeometry>
        </mxCell>
        <mxCell id="tcN-wxtSRkhTtf9mxSX--324" value="" style="endArrow=none;html=1;rounded=0;strokeColor=#736CA8;fontColor=default;shape=link;entryX=0;entryY=0;entryDx=0;entryDy=0;exitX=0;exitY=1;exitDx=0;exitDy=0;labelBackgroundColor=none;" parent="1" source="tcN-wxtSRkhTtf9mxSX--44" target="tcN-wxtSRkhTtf9mxSX--44" edge="1">
          <mxGeometry relative="1" as="geometry">
            <mxPoint x="-10" y="200" as="sourcePoint" />
            <mxPoint x="150" y="200" as="targetPoint" />
          </mxGeometry>
        </mxCell>
        <mxCell id="tcN-wxtSRkhTtf9mxSX--325" value="" style="endArrow=none;html=1;rounded=0;strokeColor=#736CA8;fontColor=default;shape=link;entryX=0;entryY=1;entryDx=0;entryDy=0;exitX=1;exitY=1;exitDx=0;exitDy=0;labelBackgroundColor=none;" parent="1" source="tcN-wxtSRkhTtf9mxSX--44" target="tcN-wxtSRkhTtf9mxSX--44" edge="1">
          <mxGeometry relative="1" as="geometry">
            <mxPoint x="-10" y="200" as="sourcePoint" />
            <mxPoint x="150" y="200" as="targetPoint" />
          </mxGeometry>
        </mxCell>
        <mxCell id="tcN-wxtSRkhTtf9mxSX--326" value="" style="endArrow=none;html=1;rounded=0;strokeColor=#736CA8;fontColor=default;shape=link;entryX=1;entryY=0;entryDx=0;entryDy=0;labelBackgroundColor=none;" parent="1" target="tcN-wxtSRkhTtf9mxSX--44" edge="1">
          <mxGeometry relative="1" as="geometry">
            <mxPoint x="390" y="170" as="sourcePoint" />
            <mxPoint x="150" y="200" as="targetPoint" />
          </mxGeometry>
        </mxCell>
        <mxCell id="tcN-wxtSRkhTtf9mxSX--327" value="" style="endArrow=none;html=1;rounded=0;strokeColor=#736CA8;fontColor=default;shape=link;labelBackgroundColor=none;" parent="1" edge="1">
          <mxGeometry relative="1" as="geometry">
            <mxPoint x="210" y="10" as="sourcePoint" />
            <mxPoint x="390" y="10" as="targetPoint" />
          </mxGeometry>
        </mxCell>
        <mxCell id="tcN-wxtSRkhTtf9mxSX--328" value="Hold" style="shape=rhombus;double=1;perimeter=rhombusPerimeter;whiteSpace=wrap;html=1;align=center;strokeColor=#9673a6;fillColor=#e1d5e7;labelBackgroundColor=none;" parent="1" vertex="1">
          <mxGeometry x="-90" y="241.75" width="50" height="46.5" as="geometry" />
        </mxCell>
        <mxCell id="tcN-wxtSRkhTtf9mxSX--329" value="" style="edgeStyle=orthogonalEdgeStyle;fontSize=12;html=1;endArrow=ERmandOne;rounded=0;strokeColor=#736CA8;fontColor=default;exitX=0;exitY=0.5;exitDx=0;exitDy=0;labelBackgroundColor=none;" parent="1" source="tcN-wxtSRkhTtf9mxSX--328" edge="1">
          <mxGeometry width="100" height="100" relative="1" as="geometry">
            <mxPoint x="20" y="360" as="sourcePoint" />
            <mxPoint x="-240" y="380" as="targetPoint" />
            <Array as="points">
              <mxPoint x="-240" y="266" />
            </Array>
          </mxGeometry>
        </mxCell>
        <mxCell id="tcN-wxtSRkhTtf9mxSX--330" value="Cancel/return the money" style="shape=rhombus;perimeter=rhombusPerimeter;whiteSpace=wrap;html=1;align=center;strokeColor=#9673a6;fillColor=#e1d5e7;labelBackgroundColor=none;" parent="1" vertex="1">
          <mxGeometry x="48.89" y="280" width="180" height="37" as="geometry" />
        </mxCell>
        <mxCell id="tcN-wxtSRkhTtf9mxSX--331" value="" style="edgeStyle=orthogonalEdgeStyle;fontSize=12;html=1;endArrow=ERzeroToMany;endFill=1;rounded=0;strokeColor=#736CA8;fontColor=default;labelBackgroundColor=none;" parent="1" source="tcN-wxtSRkhTtf9mxSX--330" edge="1">
          <mxGeometry width="100" height="100" relative="1" as="geometry">
            <mxPoint x="290" y="-90" as="sourcePoint" />
            <mxPoint x="250" y="170" as="targetPoint" />
          </mxGeometry>
        </mxCell>
        <mxCell id="tcN-wxtSRkhTtf9mxSX--345" value="" style="edgeStyle=orthogonalEdgeStyle;fontSize=12;html=1;endArrow=ERzeroToOne;endFill=1;rounded=0;strokeColor=#736CA8;fontColor=default;exitX=0;exitY=0.5;exitDx=0;exitDy=0;labelBackgroundColor=none;entryX=0.719;entryY=0;entryDx=0;entryDy=0;entryPerimeter=0;" parent="1" source="tcN-wxtSRkhTtf9mxSX--330" target="tcN-wxtSRkhTtf9mxSX--119" edge="1">
          <mxGeometry width="100" height="100" relative="1" as="geometry">
            <mxPoint x="48.8900000000001" y="288.26" as="sourcePoint" />
            <mxPoint x="-280" y="369.76" as="targetPoint" />
          </mxGeometry>
        </mxCell>
        <mxCell id="tcN-wxtSRkhTtf9mxSX--348" value="Search" style="shape=rhombus;perimeter=rhombusPerimeter;whiteSpace=wrap;html=1;align=center;strokeColor=#d6b656;fillColor=#fff2cc;labelBackgroundColor=none;" parent="1" vertex="1">
          <mxGeometry x="-830" y="407" width="60" height="30" as="geometry" />
        </mxCell>
        <mxCell id="tcN-wxtSRkhTtf9mxSX--349" value="" style="edgeStyle=orthogonalEdgeStyle;fontSize=12;html=1;endArrow=ERzeroToMany;endFill=1;rounded=0;strokeColor=#736CA8;fontColor=default;exitX=0.5;exitY=1;exitDx=0;exitDy=0;labelBackgroundColor=none;" parent="1" source="tcN-wxtSRkhTtf9mxSX--348" edge="1">
          <mxGeometry width="100" height="100" relative="1" as="geometry">
            <mxPoint x="-340" y="535" as="sourcePoint" />
            <mxPoint x="-210" y="670" as="targetPoint" />
            <Array as="points">
              <mxPoint x="-800" y="900" />
              <mxPoint x="-260" y="900" />
              <mxPoint x="-260" y="670" />
            </Array>
          </mxGeometry>
        </mxCell>
        <mxCell id="tcN-wxtSRkhTtf9mxSX--350" value="" style="edgeStyle=orthogonalEdgeStyle;fontSize=12;html=1;endArrow=ERzeroToMany;endFill=1;rounded=0;strokeColor=#736CA8;fontColor=default;entryX=0.016;entryY=0.904;entryDx=0;entryDy=0;entryPerimeter=0;exitX=0.542;exitY=-0.031;exitDx=0;exitDy=0;exitPerimeter=0;labelBackgroundColor=none;" parent="1" source="tcN-wxtSRkhTtf9mxSX--348" target="tcN-wxtSRkhTtf9mxSX--114" edge="1">
          <mxGeometry width="100" height="100" relative="1" as="geometry">
            <mxPoint x="-800" y="410" as="sourcePoint" />
            <mxPoint x="-510" y="210" as="targetPoint" />
          </mxGeometry>
        </mxCell>
        <mxCell id="tcN-wxtSRkhTtf9mxSX--351" value="Search" style="shape=rhombus;perimeter=rhombusPerimeter;whiteSpace=wrap;html=1;align=center;strokeColor=#d6b656;fillColor=#fff2cc;labelBackgroundColor=none;" parent="1" vertex="1">
          <mxGeometry x="-790" y="800" width="60" height="30" as="geometry" />
        </mxCell>
        <mxCell id="tcN-wxtSRkhTtf9mxSX--352" value="" style="edgeStyle=entityRelationEdgeStyle;fontSize=12;html=1;endArrow=ERzeroToMany;endFill=1;rounded=0;strokeColor=#736CA8;fontColor=default;exitX=1;exitY=0.5;exitDx=0;exitDy=0;labelBackgroundColor=none;" parent="1" source="tcN-wxtSRkhTtf9mxSX--351" edge="1">
          <mxGeometry width="100" height="100" relative="1" as="geometry">
            <mxPoint x="-550" y="940" as="sourcePoint" />
            <mxPoint x="-620" y="815" as="targetPoint" />
          </mxGeometry>
        </mxCell>
        <mxCell id="tcN-wxtSRkhTtf9mxSX--353" value="" style="edgeStyle=orthogonalEdgeStyle;fontSize=12;html=1;endArrow=ERzeroToMany;endFill=1;rounded=0;strokeColor=#736CA8;fontColor=default;exitX=0.429;exitY=0.002;exitDx=0;exitDy=0;entryX=0.015;entryY=0.718;entryDx=0;entryDy=0;entryPerimeter=0;exitPerimeter=0;labelBackgroundColor=none;" parent="1" source="tcN-wxtSRkhTtf9mxSX--351" target="tcN-wxtSRkhTtf9mxSX--114" edge="1">
          <mxGeometry width="100" height="100" relative="1" as="geometry">
            <mxPoint x="-550" y="940" as="sourcePoint" />
            <mxPoint x="-750" y="290" as="targetPoint" />
          </mxGeometry>
        </mxCell>
        <mxCell id="tcN-wxtSRkhTtf9mxSX--354" value="Return money" style="shape=rhombus;perimeter=rhombusPerimeter;whiteSpace=wrap;html=1;align=center;strokeColor=#56517e;fillColor=#d0cee2;labelBackgroundColor=none;" parent="1" vertex="1">
          <mxGeometry x="30" y="-110" width="110" height="40" as="geometry" />
        </mxCell>
        <mxCell id="tcN-wxtSRkhTtf9mxSX--355" value="" style="fontSize=12;html=1;endArrow=ERzeroToMany;endFill=1;rounded=0;strokeColor=#736CA8;fontColor=default;labelBackgroundColor=none;exitX=0.5;exitY=0;exitDx=0;exitDy=0;entryX=0.694;entryY=1.067;entryDx=0;entryDy=0;entryPerimeter=0;" parent="1" source="tcN-wxtSRkhTtf9mxSX--354" target="tcN-wxtSRkhTtf9mxSX--80" edge="1">
          <mxGeometry width="100" height="100" relative="1" as="geometry">
            <mxPoint x="70.00499999999971" y="-95.5" as="sourcePoint" />
            <mxPoint x="195.56" y="-165.5" as="targetPoint" />
          </mxGeometry>
        </mxCell>
        <mxCell id="tcN-wxtSRkhTtf9mxSX--356" value="" style="edgeStyle=orthogonalEdgeStyle;fontSize=12;html=1;endArrow=ERzeroToMany;endFill=1;rounded=0;strokeColor=#736CA8;fontColor=default;exitX=0.5;exitY=1;exitDx=0;exitDy=0;labelBackgroundColor=none;" parent="1" source="tcN-wxtSRkhTtf9mxSX--354" edge="1">
          <mxGeometry width="100" height="100" relative="1" as="geometry">
            <mxPoint x="199" y="-20" as="sourcePoint" />
            <mxPoint x="260" y="10" as="targetPoint" />
          </mxGeometry>
        </mxCell>
        <mxCell id="tcN-wxtSRkhTtf9mxSX--358" value="Has" style="shape=rhombus;perimeter=rhombusPerimeter;whiteSpace=wrap;html=1;align=center;strokeColor=#9673a6;fillColor=#e1d5e7;labelBackgroundColor=none;" parent="1" vertex="1">
          <mxGeometry x="9.999999999999986" y="470" width="60" height="60" as="geometry" />
        </mxCell>
        <mxCell id="tcN-wxtSRkhTtf9mxSX--360" value="" style="edgeStyle=orthogonalEdgeStyle;fontSize=12;html=1;endArrow=ERzeroToMany;endFill=1;rounded=0;strokeColor=#736CA8;fontColor=default;exitX=0.5;exitY=0;exitDx=0;exitDy=0;labelBackgroundColor=none;" parent="1" source="tcN-wxtSRkhTtf9mxSX--358" edge="1">
          <mxGeometry width="100" height="100" relative="1" as="geometry">
            <mxPoint x="-280" y="550" as="sourcePoint" />
            <mxPoint x="40" y="220" as="targetPoint" />
            <Array as="points">
              <mxPoint x="40" y="470" />
            </Array>
          </mxGeometry>
        </mxCell>
        <mxCell id="tcN-wxtSRkhTtf9mxSX--361" value="" style="edgeStyle=orthogonalEdgeStyle;fontSize=12;html=1;endArrow=ERzeroToMany;endFill=1;rounded=0;strokeColor=#736CA8;fontColor=default;exitX=0.5;exitY=1;exitDx=0;exitDy=0;labelBackgroundColor=none;" parent="1" source="tcN-wxtSRkhTtf9mxSX--358" edge="1">
          <mxGeometry width="100" height="100" relative="1" as="geometry">
            <mxPoint x="-280" y="550" as="sourcePoint" />
            <mxPoint x="-30" y="680" as="targetPoint" />
            <Array as="points">
              <mxPoint x="40" y="605" />
              <mxPoint x="10" y="605" />
              <mxPoint x="10" y="680" />
            </Array>
          </mxGeometry>
        </mxCell>
        <mxCell id="tcN-wxtSRkhTtf9mxSX--363" value="" style="edgeStyle=orthogonalEdgeStyle;fontSize=12;html=1;endArrow=ERzeroToMany;endFill=1;rounded=0;strokeColor=#736CA8;fontColor=default;entryX=0.996;entryY=0.06;entryDx=0;entryDy=0;entryPerimeter=0;labelBackgroundColor=none;exitX=0.5;exitY=0;exitDx=0;exitDy=0;" parent="1" source="tcN-wxtSRkhTtf9mxSX--240" target="tcN-wxtSRkhTtf9mxSX--180" edge="1">
          <mxGeometry width="100" height="100" relative="1" as="geometry">
            <mxPoint x="580" y="270" as="sourcePoint" />
            <mxPoint x="300" y="-300" as="targetPoint" />
            <Array as="points">
              <mxPoint x="490" y="261" />
              <mxPoint x="490" y="-100" />
              <mxPoint x="230" y="-100" />
              <mxPoint x="230" y="-427" />
            </Array>
          </mxGeometry>
        </mxCell>
        <mxCell id="vrhh-99T-nDQOH6rCTCm-3" value="Text" style="ellipse;whiteSpace=wrap;html=1;align=center;fillColor=#008a00;fontColor=#ffffff;strokeColor=#005700;" parent="1" vertex="1">
          <mxGeometry x="-206.87" y="221.75" width="40" height="20" as="geometry" />
        </mxCell>
        <mxCell id="vrhh-99T-nDQOH6rCTCm-4" value="" style="endArrow=none;html=1;rounded=0;entryX=0.5;entryY=1;entryDx=0;entryDy=0;exitX=0.5;exitY=0;exitDx=0;exitDy=0;" parent="1" source="vrhh-99T-nDQOH6rCTCm-3" target="tcN-wxtSRkhTtf9mxSX--246" edge="1">
          <mxGeometry relative="1" as="geometry">
            <mxPoint x="-320" y="110" as="sourcePoint" />
            <mxPoint x="-160" y="110" as="targetPoint" />
          </mxGeometry>
        </mxCell>
        <mxCell id="vrhh-99T-nDQOH6rCTCm-5" value="" style="endArrow=none;html=1;rounded=0;exitX=0;exitY=0.5;exitDx=0;exitDy=0;" parent="1" source="tcN-wxtSRkhTtf9mxSX--166" edge="1">
          <mxGeometry relative="1" as="geometry">
            <mxPoint x="-730" y="83" as="sourcePoint" />
            <mxPoint x="-710.0974720822087" y="83.10409147308656" as="targetPoint" />
          </mxGeometry>
        </mxCell>
        <mxCell id="vrhh-99T-nDQOH6rCTCm-9" value="Text" style="ellipse;whiteSpace=wrap;html=1;align=center;fillColor=#008a00;fontColor=#ffffff;strokeColor=#005700;" parent="1" vertex="1">
          <mxGeometry x="-760" y="72.5" width="50" height="17.5" as="geometry" />
        </mxCell>
        <mxCell id="vrhh-99T-nDQOH6rCTCm-10" value="Text" style="ellipse;whiteSpace=wrap;html=1;align=center;fillColor=#008a00;fontColor=#ffffff;strokeColor=#005700;" parent="1" vertex="1">
          <mxGeometry x="-680" y="571" width="40" height="20" as="geometry" />
        </mxCell>
        <mxCell id="vrhh-99T-nDQOH6rCTCm-11" value="" style="endArrow=none;html=1;rounded=0;entryX=0;entryY=1;entryDx=0;entryDy=0;exitX=0.5;exitY=0;exitDx=0;exitDy=0;" parent="1" source="vrhh-99T-nDQOH6rCTCm-10" target="tcN-wxtSRkhTtf9mxSX--244" edge="1">
          <mxGeometry relative="1" as="geometry">
            <mxPoint x="-783.13" y="470" as="sourcePoint" />
            <mxPoint x="-650.13" y="550" as="targetPoint" />
          </mxGeometry>
        </mxCell>
        <mxCell id="vrhh-99T-nDQOH6rCTCm-15" value="Has" style="shape=rhombus;perimeter=rhombusPerimeter;whiteSpace=wrap;html=1;align=center;strokeColor=#9673a6;fillColor=#e1d5e7;labelBackgroundColor=none;" parent="1" vertex="1">
          <mxGeometry x="-268.75" y="551.75" width="35" height="30" as="geometry" />
        </mxCell>
        <mxCell id="vrhh-99T-nDQOH6rCTCm-16" value="Has" style="shape=rhombus;perimeter=rhombusPerimeter;whiteSpace=wrap;html=1;align=center;strokeColor=#9673a6;fillColor=#e1d5e7;labelBackgroundColor=none;" parent="1" vertex="1">
          <mxGeometry x="-405" y="550" width="35" height="30" as="geometry" />
        </mxCell>
        <mxCell id="vrhh-99T-nDQOH6rCTCm-19" value="" style="fontSize=12;html=1;endArrow=ERoneToMany;rounded=0;edgeStyle=orthogonalEdgeStyle;labelBackgroundColor=none;strokeColor=#736CA8;fontColor=default;exitX=0.5;exitY=0;exitDx=0;exitDy=0;" parent="1" source="vrhh-99T-nDQOH6rCTCm-15" edge="1">
          <mxGeometry width="100" height="100" relative="1" as="geometry">
            <mxPoint x="-377" y="592" as="sourcePoint" />
            <mxPoint x="-280" y="440" as="targetPoint" />
            <Array as="points">
              <mxPoint x="-270" y="552" />
              <mxPoint x="-270" y="496" />
              <mxPoint x="-280" y="496" />
              <mxPoint x="-280" y="440" />
            </Array>
          </mxGeometry>
        </mxCell>
        <mxCell id="vrhh-99T-nDQOH6rCTCm-20" value="" style="fontSize=12;html=1;endArrow=ERoneToMany;rounded=0;edgeStyle=orthogonalEdgeStyle;labelBackgroundColor=none;strokeColor=#736CA8;fontColor=default;exitX=0.5;exitY=0;exitDx=0;exitDy=0;" parent="1" source="vrhh-99T-nDQOH6rCTCm-16" edge="1">
          <mxGeometry width="100" height="100" relative="1" as="geometry">
            <mxPoint x="-361" y="550.03" as="sourcePoint" />
            <mxPoint x="-390" y="438.03000000000003" as="targetPoint" />
            <Array as="points">
              <mxPoint x="-388" y="550" />
              <mxPoint x="-390" y="550" />
            </Array>
          </mxGeometry>
        </mxCell>
        <mxCell id="vrhh-99T-nDQOH6rCTCm-21" value="Text" style="ellipse;whiteSpace=wrap;html=1;align=center;fillColor=#008a00;fontColor=#ffffff;strokeColor=#005700;" parent="1" vertex="1">
          <mxGeometry x="-200" y="561.75" width="40" height="20" as="geometry" />
        </mxCell>
        <mxCell id="vrhh-99T-nDQOH6rCTCm-22" value="" style="endArrow=none;html=1;rounded=0;entryX=0.5;entryY=1;entryDx=0;entryDy=0;exitX=0.5;exitY=0;exitDx=0;exitDy=0;" parent="1" source="vrhh-99T-nDQOH6rCTCm-21" edge="1">
          <mxGeometry relative="1" as="geometry">
            <mxPoint x="-313.13" y="450" as="sourcePoint" />
            <mxPoint x="-180.13" y="530" as="targetPoint" />
          </mxGeometry>
        </mxCell>
        <mxCell id="vrhh-99T-nDQOH6rCTCm-23" value="&lt;span style=&quot;color: rgb(26, 26, 26); text-align: left; text-wrap: nowrap;&quot;&gt;Amount&lt;/span&gt;" style="ellipse;whiteSpace=wrap;html=1;align=center;fillColor=#60a917;fontColor=#ffffff;strokeColor=#2D7600;" parent="1" vertex="1">
          <mxGeometry x="-40" y="-105" width="59" height="30" as="geometry" />
        </mxCell>
        <mxCell id="vrhh-99T-nDQOH6rCTCm-25" value="" style="endArrow=none;html=1;rounded=0;entryX=0;entryY=0.5;entryDx=0;entryDy=0;exitX=1;exitY=0.5;exitDx=0;exitDy=0;" parent="1" source="vrhh-99T-nDQOH6rCTCm-23" target="tcN-wxtSRkhTtf9mxSX--354" edge="1">
          <mxGeometry relative="1" as="geometry">
            <mxPoint x="-60" y="-170" as="sourcePoint" />
            <mxPoint x="100" y="-170" as="targetPoint" />
          </mxGeometry>
        </mxCell>
      </root>
    </mxGraphModel>
  </diagram>
</mxfile>
